<svg xmlns="http://www.w3.org/2000/svg" viewBox="0 0 281.57 330.02"><defs><style>.cls-1{fill:#020202;}.cls-2{fill:#0c0d10;}.cls-3{fill:#18181c;}.cls-4{fill:#252429;}.cls-5{fill:#323035;}.cls-6{fill:#403e43;}.cls-7{fill:#504d52;}.cls-8{fill:#605d62;}.cls-9{fill:#716f73;}.cls-10{fill:#848185;}.cls-11{fill:#979699;}.cls-12{fill:#acabad;}.cls-13{fill:#c2c2c3;}.cls-14{fill:#dadada;}</style></defs><title>Asset 1</title><g id="Layer_2" data-name="Layer 2"><g id="Layer_3" data-name="Layer 3"><path class="cls-1" d="M280.24,7.13c.16,1.35-.39,2.38-1.21,2.33S277.43,8.3,277.27,7s.35-2.4,1.17-2.36S280.07,5.78,280.24,7.13Z"/><path class="cls-1" d="M281.57,26.69c0,1.3-.73,2.25-1.62,2.14s-1.59-1.23-1.59-2.52.71-2.27,1.59-2.17S281.57,25.38,281.57,26.69Z"/><path class="cls-1" d="M280.51,44.44c-.17,1.25-1.09,2.11-2,1.94a2.13,2.13,0,0,1-1.39-2.54c.17-1.24,1.06-2.13,2-2A2.19,2.19,0,0,1,280.51,44.44Z"/><path class="cls-1" d="M277.25,60.53a2.23,2.23,0,0,1-2.46,1.73,1.92,1.92,0,0,1-1.16-2.56A2.21,2.21,0,0,1,276,57.94,2,2,0,0,1,277.25,60.53Z"/><path class="cls-1" d="M272,75.12a2.58,2.58,0,0,1-2.86,1.52,1.75,1.75,0,0,1-.93-2.58A2.57,2.57,0,0,1,271,72.51,1.79,1.79,0,0,1,272,75.12Z"/><path class="cls-1" d="M264.9,88.36a3,3,0,0,1-3.25,1.31,1.63,1.63,0,0,1-.68-2.61,3,3,0,0,1,3.2-1.34A1.66,1.66,0,0,1,264.9,88.36Z"/><path class="cls-1" d="M256.2,100.41a3.47,3.47,0,0,1-3.61,1.1c-1.11-.43-1.29-1.6-.43-2.64a3.48,3.48,0,0,1,3.57-1.13C256.85,98.16,257.07,99.36,256.2,100.41Z"/><path class="cls-1" d="M246.08,111.42a3.94,3.94,0,0,1-3.94.9c-1.13-.5-1.2-1.69-.17-2.68a4,4,0,0,1,3.91-.93C247,109.19,247.12,110.41,246.08,111.42Z"/><path class="cls-1" d="M234.74,121.54a4.38,4.38,0,0,1-4.25.72c-1.14-.56-1.09-1.79.09-2.74a4.43,4.43,0,0,1,4.22-.74C236,119.33,235.94,120.57,234.74,121.54Z"/><path class="cls-1" d="M222.38,130.94a4.77,4.77,0,0,1-4.53.55c-1.14-.64-1-1.9.35-2.82a4.79,4.79,0,0,1,4.5-.57C223.86,128.72,223.72,130,222.38,130.94Z"/><path class="cls-1" d="M209.19,139.77a5,5,0,0,1-4.76.39c-1.14-.71-.87-2,.59-2.93a5.06,5.06,0,0,1,4.73-.4C210.91,137.52,210.67,138.84,209.19,139.77Z"/><path class="cls-1" d="M195.36,148.18c-1.6.92-3.82,1-4.94.25s-.76-2.15.82-3.06,3.77-1,4.92-.26S197,147.25,195.36,148.18Z"/><path class="cls-1" d="M181.11,156.32c-1.7.94-4,1-5.09.14s-.65-2.3,1-3.22,4-1,5.08-.14S182.8,155.38,181.11,156.32Z"/><path class="cls-1" d="M166.61,164.36c-1.77,1-4.09,1-5.18,0s-.54-2.47,1.21-3.42,4.06-1,5.18-.05S168.39,163.39,166.61,164.36Z"/><path class="cls-1" d="M153.09,169.1c.9.94.26,2.4-1.42,3.27s-3.73.8-4.59-.16-.24-2.43,1.41-3.28S152.2,168.16,153.09,169.1Z"/><path class="cls-1" d="M138.5,177.44c.68.95,0,2.35-1.57,3.13s-3.33.62-4-.35,0-2.38,1.55-3.13S137.81,176.49,138.5,177.44Z"/><path class="cls-1" d="M124.24,186.13c.49,1-.25,2.3-1.65,3s-2.92.45-3.4-.53.24-2.32,1.63-3S123.74,185.17,124.24,186.13Z"/><path class="cls-1" d="M110.52,195.33c.33,1-.43,2.26-1.67,2.86s-2.49.28-2.8-.71a2.61,2.61,0,0,1,1.64-2.86C108.92,194,110.2,194.35,110.52,195.33Z"/><path class="cls-1" d="M97.56,205.21a2.77,2.77,0,0,1-1.63,2.72c-1.08.51-2.08.1-2.25-.91a2.73,2.73,0,0,1,1.61-2.72C96.36,203.81,97.39,204.22,97.56,205.21Z"/><path class="cls-1" d="M85.57,215.94A2.85,2.85,0,0,1,84,218.52a1.18,1.18,0,0,1-1.74-1.14,2.79,2.79,0,0,1,1.53-2.58A1.2,1.2,0,0,1,85.57,215.94Z"/><path class="cls-1" d="M74.76,227.68a2.78,2.78,0,0,1-1.43,2.41c-.75.29-1.32-.35-1.29-1.41a2.68,2.68,0,0,1,1.4-2.4C74.2,226,74.79,226.63,74.76,227.68Z"/><path class="cls-1" d="M65.33,240.6c-.09,1.08-.66,2.09-1.26,2.23s-1-.64-.93-1.73.64-2.09,1.25-2.22S65.43,239.51,65.33,240.6Z"/><path class="cls-1" d="M57.51,254.86c-.12,1.13-.61,2-1.08,2s-.77-1-.66-2.12.59-2,1.08-2S57.63,253.73,57.51,254.86Z"/><path class="cls-1" d="M51.5,270.64c-.11,1.19-.51,2-.88,1.76s-.6-1.39-.5-2.59.51-2,.89-1.73S51.62,269.45,51.5,270.64Z"/><path class="cls-1" d="M47.52,288.09c-.07,1.26-.37,1.92-.68,1.46a6.61,6.61,0,0,1-.46-3.14c.06-1.25.38-1.88.7-1.42A6.45,6.45,0,0,1,47.52,288.09Z"/><path class="cls-1" d="M45.78,307.4c0,1.34-.21,1.83-.5,1.08a13.74,13.74,0,0,1-.56-3.78c0-1.33.23-1.79.52-1.05A12.76,12.76,0,0,1,45.78,307.4Z"/><path class="cls-1" d="M46.49,328.72c.12,1.43,0,1.73-.33.64a28.78,28.78,0,0,1-.81-4.53c-.13-1.42,0-1.68.36-.61A28.86,28.86,0,0,1,46.49,328.72Z"/><path class="cls-2" d="M271.14,6.64c.15,1.26-.41,2.22-1.23,2.17s-1.59-1.08-1.73-2.33.38-2.23,1.2-2.19S271,5.39,271.14,6.64Z"/><path class="cls-2" d="M272.34,25.61c0,1.21-.75,2.09-1.63,2a2.22,2.22,0,0,1-1.58-2.36c0-1.2.72-2.11,1.6-2A2.26,2.26,0,0,1,272.34,25.61Z"/><path class="cls-2" d="M271.22,42.81a1.89,1.89,0,0,1-2,1.79,2,2,0,0,1-1.4-2.39,1.89,1.89,0,0,1,2-1.81A2,2,0,0,1,271.22,42.81Z"/><path class="cls-2" d="M268,58.41A2.14,2.14,0,0,1,265.54,60a1.83,1.83,0,0,1-1.2-2.41A2.16,2.16,0,0,1,266.73,56,1.86,1.86,0,0,1,268,58.41Z"/><path class="cls-2" d="M262.77,72.54a2.48,2.48,0,0,1-2.8,1.38,1.67,1.67,0,0,1-1-2.44,2.49,2.49,0,0,1,2.77-1.4A1.69,1.69,0,0,1,262.77,72.54Z"/><path class="cls-2" d="M255.83,85.37a2.9,2.9,0,0,1-3.17,1.17,1.55,1.55,0,0,1-.76-2.47,2.91,2.91,0,0,1,3.13-1.2A1.58,1.58,0,0,1,255.83,85.37Z"/><path class="cls-2" d="M247.32,97a3.35,3.35,0,0,1-3.51,1,1.47,1.47,0,0,1-.53-2.5,3.36,3.36,0,0,1,3.48-1A1.49,1.49,0,0,1,247.32,97Z"/><path class="cls-2" d="M237.44,107.68a3.8,3.8,0,0,1-3.83.78c-1.13-.5-1.25-1.64-.28-2.56a3.84,3.84,0,0,1,3.79-.8C238.26,105.59,238.41,106.75,237.44,107.68Z"/><path class="cls-2" d="M226.38,117.47a4.26,4.26,0,0,1-4.12.6c-1.14-.57-1.15-1.74,0-2.62a4.24,4.24,0,0,1,4.08-.62C227.46,115.38,227.5,116.57,226.38,117.47Z"/><path class="cls-2" d="M214.32,126.55A4.53,4.53,0,0,1,210,127c-1.15-.63-1.06-1.84.19-2.7a4.63,4.63,0,0,1,4.34-.44C215.65,124.45,215.58,125.68,214.32,126.55Z"/><path class="cls-2" d="M201.47,135.07a4.8,4.8,0,0,1-4.58.27c-1.14-.71-.95-2,.42-2.81a4.87,4.87,0,0,1,4.56-.28C203,132.94,202.86,134.21,201.47,135.07Z"/><path class="cls-2" d="M188,143.18a4.93,4.93,0,0,1-4.76.13c-1.13-.78-.84-2.1.63-2.94a5,5,0,0,1,4.75-.13C189.78,141,189.51,142.32,188,143.18Z"/><path class="cls-2" d="M174.13,151a4.91,4.91,0,0,1-4.89,0c-1.11-.86-.74-2.24.83-3.09a5,5,0,0,1,4.88,0C176.08,148.77,175.72,150.16,174.13,151Z"/><path class="cls-2" d="M160,158.77c-1.66.9-3.89.86-5-.08s-.63-2.42,1-3.29,3.86-.84,5,.08S161.69,157.88,160,158.77Z"/><path class="cls-2" d="M145.5,166.47c-1.57.8-3.55.68-4.43-.28s-.34-2.37,1.2-3.15,3.53-.66,4.44.28S147.07,165.66,145.5,166.47Z"/><path class="cls-2" d="M131.16,174.34c-1.45.72-3.17.52-3.86-.44s-.09-2.33,1.34-3,3.17-.5,3.88.45S132.61,173.62,131.16,174.34Z"/><path class="cls-2" d="M117.22,182.56c-1.32.64-2.78.37-3.3-.61s.12-2.28,1.42-2.9,2.8-.35,3.32.61S118.53,181.92,117.22,182.56Z"/><path class="cls-2" d="M103.86,191.26a1.89,1.89,0,0,1-2.74-.77,2.39,2.39,0,0,1,1.44-2.77,2,2,0,0,1,2.77.77A2.4,2.4,0,0,1,103.86,191.26Z"/><path class="cls-2" d="M91.29,200.62a1.46,1.46,0,0,1-2.21-1A2.5,2.5,0,0,1,90.5,197a1.51,1.51,0,0,1,2.24.95A2.54,2.54,0,0,1,91.29,200.62Z"/><path class="cls-2" d="M79.71,210.78c-.86.38-1.63-.14-1.74-1.15a2.56,2.56,0,0,1,1.35-2.52,1.24,1.24,0,0,1,1.77,1.15A2.64,2.64,0,0,1,79.71,210.78Z"/><path class="cls-2" d="M69.31,221.89c-.71.28-1.3-.34-1.32-1.39a2.52,2.52,0,0,1,1.25-2.36c.71-.27,1.32.35,1.33,1.38A2.58,2.58,0,0,1,69.31,221.89Z"/><path class="cls-2" d="M60.29,234.12c-.58.15-1-.6-1-1.67s.53-2,1.11-2.19,1,.59,1,1.65S60.86,234,60.29,234.12Z"/><path class="cls-2" d="M53.81,245.83c-.12,1.06-.6,1.84-1.07,1.72s-.74-1.11-.63-2.18.6-1.82,1.07-1.7S53.94,244.76,53.81,245.83Z"/><path class="cls-2" d="M48,261c-.11,1.11-.5,1.78-.88,1.48a3.77,3.77,0,0,1-.49-2.59c.11-1.12.51-1.77.89-1.46A3.54,3.54,0,0,1,48,261Z"/><path class="cls-2" d="M44.07,277.75c-.07,1.17-.37,1.71-.69,1.19a7,7,0,0,1-.46-3.08c.07-1.18.39-1.69.71-1.17A6.59,6.59,0,0,1,44.07,277.75Z"/><path class="cls-2" d="M42.35,296.29c0,1.25-.22,1.64-.51.85a13.23,13.23,0,0,1-.56-3.66c0-1.24.24-1.6.53-.83A12.71,12.71,0,0,1,42.35,296.29Z"/><path class="cls-2" d="M43,316.78c.11,1.32,0,1.53-.35.44a27.28,27.28,0,0,1-.79-4.34c-.11-1.3.06-1.49.38-.42A27.84,27.84,0,0,1,43,316.78Z"/><path class="cls-3" d="M262.05,6.16c.13,1.16-.44,2.06-1.27,2s-1.57-1-1.7-2.17.42-2.07,1.24-2S261.92,5,262.05,6.16Z"/><path class="cls-3" d="M263.11,24.53c0,1.12-.76,1.94-1.64,1.83a2.1,2.1,0,0,1-1.57-2.21c0-1.11.73-1.95,1.61-1.85A2.12,2.12,0,0,1,263.11,24.53Z"/><path class="cls-3" d="M261.93,41.19a1.81,1.81,0,0,1-2,1.64,1.91,1.91,0,0,1-1.41-2.24,1.81,1.81,0,0,1,2-1.66A1.94,1.94,0,0,1,261.93,41.19Z"/><path class="cls-3" d="M258.69,56.29a2.07,2.07,0,0,1-2.4,1.44,1.74,1.74,0,0,1-1.23-2.27A2.08,2.08,0,0,1,257.42,54,1.78,1.78,0,0,1,258.69,56.29Z"/><path class="cls-3" d="M253.57,70a2.42,2.42,0,0,1-2.75,1.24,1.59,1.59,0,0,1-1-2.3,2.42,2.42,0,0,1,2.72-1.27A1.63,1.63,0,0,1,253.57,70Z"/><path class="cls-3" d="M246.76,82.38a2.84,2.84,0,0,1-3.1,1,1.49,1.49,0,0,1-.83-2.34A2.82,2.82,0,0,1,245.89,80,1.51,1.51,0,0,1,246.76,82.38Z"/><path class="cls-3" d="M238.44,93.65a3.25,3.25,0,0,1-3.42.85,1.41,1.41,0,0,1-.62-2.38,3.26,3.26,0,0,1,3.39-.87A1.42,1.42,0,0,1,238.44,93.65Z"/><path class="cls-3" d="M228.79,104a3.69,3.69,0,0,1-3.71.65,1.37,1.37,0,0,1-.4-2.43,3.73,3.73,0,0,1,3.69-.68A1.38,1.38,0,0,1,228.79,104Z"/><path class="cls-3" d="M218,113.4a4.08,4.08,0,0,1-4,.47,1.36,1.36,0,0,1-.18-2.49,4.12,4.12,0,0,1,4-.5A1.38,1.38,0,0,1,218,113.4Z"/><path class="cls-3" d="M206.27,122.16a4.4,4.4,0,0,1-4.22.3c-1.14-.63-1.12-1.78,0-2.58a4.47,4.47,0,0,1,4.2-.32C207.45,120.18,207.45,121.35,206.27,122.16Z"/><path class="cls-3" d="M193.76,130.37a4.61,4.61,0,0,1-4.42.15c-1.14-.71-1-1.91.25-2.68a4.68,4.68,0,0,1,4.4-.17C195.15,128.37,195.05,129.58,193.76,130.37Z"/><path class="cls-3" d="M180.66,138.18a4.72,4.72,0,0,1-4.58,0c-1.13-.78-.92-2,.45-2.81a4.76,4.76,0,0,1,4.56,0C182.24,136.12,182.05,137.39,180.66,138.18Z"/><path class="cls-3" d="M167.16,145.74a4.72,4.72,0,0,1-4.7-.11c-1.11-.86-.82-2.19.63-3a4.8,4.8,0,0,1,4.69.11C168.92,143.6,168.64,144.93,167.16,145.74Z"/><path class="cls-3" d="M153.44,153.18a4.57,4.57,0,0,1-4.77-.21c-1.09-.94-.73-2.36.79-3.17a4.69,4.69,0,0,1,4.77.21C155.34,150.94,155,152.35,153.44,153.18Z"/><path class="cls-3" d="M139.32,160.57a3.79,3.79,0,0,1-4.25-.39c-.89-1-.45-2.32,1-3a3.91,3.91,0,0,1,4.27.39C141.24,158.47,140.79,159.82,139.32,160.57Z"/><path class="cls-3" d="M125.4,168.12a3.07,3.07,0,0,1-3.73-.54c-.71-1-.21-2.27,1.13-2.92a3.16,3.16,0,0,1,3.75.54C127.27,166.15,126.75,167.45,125.4,168.12Z"/><path class="cls-3" d="M111.85,176a2.43,2.43,0,0,1-3.2-.68,2.09,2.09,0,0,1,1.22-2.81,2.5,2.5,0,0,1,3.22.69A2.08,2.08,0,0,1,111.85,176Z"/><path class="cls-3" d="M98.87,184.34a1.9,1.9,0,0,1-2.68-.83,2.2,2.2,0,0,1,1.25-2.7,2,2,0,0,1,2.71.83A2.22,2.22,0,0,1,98.87,184.34Z"/><path class="cls-3" d="M86.66,193.31a1.51,1.51,0,0,1-2.19-1,2.3,2.3,0,0,1,1.24-2.58,1.53,1.53,0,0,1,2.21,1A2.34,2.34,0,0,1,86.66,193.31Z"/><path class="cls-3" d="M75.4,203c-.81.37-1.58-.15-1.74-1.16a2.37,2.37,0,0,1,1.18-2.46,1.26,1.26,0,0,1,1.76,1.15A2.4,2.4,0,0,1,75.4,203Z"/><path class="cls-3" d="M65.29,213.69c-.68.28-1.27-.34-1.34-1.37A2.35,2.35,0,0,1,65,210c.67-.26,1.28.34,1.35,1.36A2.41,2.41,0,0,1,65.29,213.69Z"/><path class="cls-3" d="M56.5,225.42c-.54.16-1-.57-1-1.62s.42-2,1-2.17,1,.56,1,1.6S57.05,225.26,56.5,225.42Z"/><path class="cls-3" d="M50.12,236.79c-.13,1-.6,1.64-1.06,1.42s-.73-1.22-.61-2.22.6-1.63,1.06-1.4S50.25,235.79,50.12,236.79Z"/><path class="cls-3" d="M44.42,251.32c-.11,1-.5,1.58-.87,1.2a4,4,0,0,1-.49-2.6c.11-1,.51-1.56.89-1.18A3.77,3.77,0,0,1,44.42,251.32Z"/><path class="cls-3" d="M40.62,267.39c-.07,1.1-.37,1.53-.69.95a7,7,0,0,1-.46-3c.06-1.09.38-1.5.71-.92A6.72,6.72,0,0,1,40.62,267.39Z"/><path class="cls-3" d="M38.92,285.18c0,1.15-.22,1.44-.52.63a13.14,13.14,0,0,1-.56-3.55c0-1.15.25-1.41.55-.61A12.55,12.55,0,0,1,38.92,285.18Z"/><path class="cls-3" d="M39.51,304.83c.1,1.22,0,1.34-.37.26a26,26,0,0,1-.77-4.15c-.1-1.21.08-1.31.4-.24A26.31,26.31,0,0,1,39.51,304.83Z"/><path class="cls-4" d="M253,5.67c.11,1.08-.48,1.9-1.3,1.86a2.12,2.12,0,0,1-1.67-2c-.11-1.07.45-1.91,1.27-1.88A2.17,2.17,0,0,1,253,5.67Z"/><path class="cls-4" d="M253.88,23.44a1.57,1.57,0,0,1-1.65,1.69,2,2,0,0,1-1.56-2.06,1.57,1.57,0,0,1,1.62-1.7A2,2,0,0,1,253.88,23.44Z"/><path class="cls-4" d="M252.63,39.57a1.73,1.73,0,0,1-2,1.49A1.8,1.8,0,0,1,249.21,39a1.74,1.74,0,0,1,2-1.52A1.84,1.84,0,0,1,252.63,39.57Z"/><path class="cls-4" d="M249.4,54.17a2,2,0,0,1-2.36,1.3,1.66,1.66,0,0,1-1.26-2.13A2,2,0,0,1,248.11,52,1.68,1.68,0,0,1,249.4,54.17Z"/><path class="cls-4" d="M244.36,67.4a2.36,2.36,0,0,1-2.7,1.11,1.54,1.54,0,0,1-1.09-2.17,2.36,2.36,0,0,1,2.67-1.14A1.56,1.56,0,0,1,244.36,67.4Z"/><path class="cls-4" d="M237.69,79.38a2.74,2.74,0,0,1-3,.92,1.43,1.43,0,0,1-.91-2.21,2.76,2.76,0,0,1,3-.94A1.45,1.45,0,0,1,237.69,79.38Z"/><path class="cls-4" d="M229.56,90.28a3.17,3.17,0,0,1-3.32.72,1.36,1.36,0,0,1-.72-2.26,3.18,3.18,0,0,1,3.3-.74A1.37,1.37,0,0,1,229.56,90.28Z"/><path class="cls-4" d="M220.15,100.21a3.58,3.58,0,0,1-3.6.54c-1.13-.5-1.35-1.53-.51-2.32a3.6,3.6,0,0,1,3.58-.55A1.32,1.32,0,0,1,220.15,100.21Z"/><path class="cls-4" d="M209.64,109.33a4,4,0,0,1-3.85.36,1.31,1.31,0,0,1-.31-2.39,4,4,0,0,1,3.83-.37A1.31,1.31,0,0,1,209.64,109.33Z"/><path class="cls-4" d="M198.21,117.77a4.24,4.24,0,0,1-4.07.19,1.33,1.33,0,0,1-.1-2.47,4.28,4.28,0,0,1,4.05-.2A1.33,1.33,0,0,1,198.21,117.77Z"/><path class="cls-4" d="M186,125.67a4.43,4.43,0,0,1-4.25,0c-1.15-.71-1.1-1.86.09-2.57a4.52,4.52,0,0,1,4.24,0C187.27,123.78,187.25,124.94,186,125.67Z"/><path class="cls-4" d="M173.3,133.19a4.55,4.55,0,0,1-4.4-.11c-1.13-.78-1-2,.28-2.7a4.61,4.61,0,0,1,4.39.1C174.72,131.24,174.6,132.46,173.3,133.19Z"/><path class="cls-4" d="M160.18,140.44a4.52,4.52,0,0,1-4.51-.22c-1.11-.86-.91-2.14.45-2.86a4.6,4.6,0,0,1,4.5.22C161.76,138.42,161.56,139.71,160.18,140.44Z"/><path class="cls-4" d="M146.85,147.59a4.38,4.38,0,0,1-4.57-.33c-1.09-.95-.82-2.31.59-3a4.5,4.5,0,0,1,4.58.33C148.56,145.47,148.29,146.83,146.85,147.59Z"/><path class="cls-4" d="M133.15,154.66a3.67,3.67,0,0,1-4.1-.49c-.9-.95-.55-2.26.8-2.93a3.77,3.77,0,0,1,4.1.5C134.87,152.67,134.51,154,133.15,154.66Z"/><path class="cls-4" d="M119.63,161.9a3,3,0,0,1-3.6-.63,1.85,1.85,0,0,1,.93-2.83,3.11,3.11,0,0,1,3.62.64C121.32,160,120.89,161.28,119.63,161.9Z"/><path class="cls-4" d="M106.48,169.43a2.41,2.41,0,0,1-3.11-.75,2,2,0,0,1,1-2.73,2.49,2.49,0,0,1,3.13.76A1.93,1.93,0,0,1,106.48,169.43Z"/><path class="cls-4" d="M93.88,177.42a1.91,1.91,0,0,1-2.62-.89,2,2,0,0,1,1.06-2.62,2,2,0,0,1,2.64.88A2,2,0,0,1,93.88,177.42Z"/><path class="cls-4" d="M82,186a1.54,1.54,0,0,1-2.16-1,2.14,2.14,0,0,1,1.06-2.52,1.57,1.57,0,0,1,2.18,1A2.15,2.15,0,0,1,82,186Z"/><path class="cls-4" d="M71.09,195.31c-.77.35-1.54-.18-1.74-1.18a2.19,2.19,0,0,1,1-2.41c.76-.34,1.55.18,1.75,1.17A2.25,2.25,0,0,1,71.09,195.31Z"/><path class="cls-4" d="M61.26,205.5c-.64.27-1.24-.34-1.36-1.35a2.24,2.24,0,0,1,.94-2.3c.64-.26,1.25.35,1.37,1.35A2.3,2.3,0,0,1,61.26,205.5Z"/><path class="cls-4" d="M52.72,216.72c-.52.17-1-.54-1-1.57s.31-2,.83-2.16,1,.54,1.05,1.56S53.24,216.55,52.72,216.72Z"/><path class="cls-4" d="M46.43,227.75c-.14.93-.61,1.45-1,1.14a2.68,2.68,0,0,1-.59-2.27c.13-.94.6-1.44,1.06-1.12A2.59,2.59,0,0,1,46.43,227.75Z"/><path class="cls-4" d="M40.89,241.65c-.12,1-.51,1.4-.88.94a4.25,4.25,0,0,1-.48-2.6c.11-1,.51-1.38.88-.92A4,4,0,0,1,40.89,241.65Z"/><path class="cls-4" d="M37.18,257c-.07,1-.38,1.33-.7.7a7.1,7.1,0,0,1-.47-3c.07-1,.39-1.31.71-.68A6.66,6.66,0,0,1,37.18,257Z"/><path class="cls-4" d="M35.49,274.07c0,1.06-.23,1.26-.53.41a12.33,12.33,0,0,1-.55-3.44c0-1.06.25-1.23.55-.4A12.15,12.15,0,0,1,35.49,274.07Z"/><path class="cls-4" d="M36,292.89c.1,1.12-.07,1.16-.38.08a24.93,24.93,0,0,1-.76-4c-.09-1.1.1-1.12.41-.06A23,23,0,0,1,36,292.89Z"/><path class="cls-5" d="M243.86,5.18c.1,1-.49,1.76-1.32,1.71A2,2,0,0,1,240.9,5c-.1-1,.47-1.76,1.29-1.72A2,2,0,0,1,243.86,5.18Z"/><path class="cls-5" d="M244.65,22.36A1.5,1.5,0,0,1,243,23.9,1.85,1.85,0,0,1,241.44,22a1.51,1.51,0,0,1,1.63-1.56A1.89,1.89,0,0,1,244.65,22.36Z"/><path class="cls-5" d="M243.34,37.94a1.69,1.69,0,0,1-2,1.36,1.73,1.73,0,0,1-1.43-2,1.7,1.7,0,0,1,2-1.37A1.74,1.74,0,0,1,243.34,37.94Z"/><path class="cls-5" d="M240.12,52.05a2,2,0,0,1-2.33,1.17,1.59,1.59,0,0,1-1.29-2A2,2,0,0,1,238.8,50,1.62,1.62,0,0,1,240.12,52.05Z"/><path class="cls-5" d="M235.16,64.82a2.29,2.29,0,0,1-2.65,1,1.47,1.47,0,0,1-1.14-2,2.29,2.29,0,0,1,2.62-1A1.5,1.5,0,0,1,235.16,64.82Z"/><path class="cls-5" d="M228.62,76.39a2.68,2.68,0,0,1-3,.8c-1.08-.37-1.51-1.3-1-2.09a2.67,2.67,0,0,1,2.93-.81C228.71,74.64,229.16,75.59,228.62,76.39Z"/><path class="cls-5" d="M220.68,86.9a3.09,3.09,0,0,1-3.23.6c-1.11-.43-1.47-1.38-.8-2.14a3.11,3.11,0,0,1,3.21-.62C221,85.16,221.35,86.13,220.68,86.9Z"/><path class="cls-5" d="M211.51,96.47a3.49,3.49,0,0,1-3.5.43c-1.13-.5-1.4-1.48-.61-2.2a3.48,3.48,0,0,1,3.47-.44C212,94.74,212.3,95.74,211.51,96.47Z"/><path class="cls-5" d="M201.28,105.26a3.87,3.87,0,0,1-3.73.24c-1.14-.56-1.33-1.57-.43-2.27a3.89,3.89,0,0,1,3.7-.26C202,103.52,202.19,104.55,201.28,105.26Z"/><path class="cls-5" d="M190.16,113.38a4.14,4.14,0,0,1-3.93.08c-1.15-.63-1.25-1.69-.25-2.36a4.2,4.2,0,0,1,3.92-.1C191.06,111.63,191.18,112.69,190.16,113.38Z"/><path class="cls-5" d="M178.33,121a4.35,4.35,0,0,1-4.1-.07c-1.14-.71-1.17-1.81-.07-2.47a4.39,4.39,0,0,1,4.09.06C179.41,119.19,179.45,120.3,178.33,121Z"/><path class="cls-5" d="M166,128.19a4.39,4.39,0,0,1-4.23-.21,1.41,1.41,0,0,1,.1-2.6,4.48,4.48,0,0,1,4.23.21A1.4,1.4,0,0,1,166,128.19Z"/><path class="cls-5" d="M153.21,135.15a4.4,4.4,0,0,1-4.34-.34,1.51,1.51,0,0,1,.27-2.74,4.46,4.46,0,0,1,4.33.33A1.51,1.51,0,0,1,153.21,135.15Z"/><path class="cls-5" d="M140.27,142a4.25,4.25,0,0,1-4.39-.45,1.66,1.66,0,0,1,.41-2.93,4.31,4.31,0,0,1,4.39.45A1.65,1.65,0,0,1,140.27,142Z"/><path class="cls-5" d="M127,148.76a3.56,3.56,0,0,1-3.94-.59,1.69,1.69,0,0,1,.6-2.83,3.68,3.68,0,0,1,4,.6A1.67,1.67,0,0,1,127,148.76Z"/><path class="cls-5" d="M113.86,155.68a3,3,0,0,1-3.48-.72,1.73,1.73,0,0,1,.74-2.73,3,3,0,0,1,3.49.72A1.72,1.72,0,0,1,113.86,155.68Z"/><path class="cls-5" d="M101.1,162.88a2.41,2.41,0,0,1-3-.83,1.81,1.81,0,0,1,.83-2.65,2.46,2.46,0,0,1,3,.83A1.81,1.81,0,0,1,101.1,162.88Z"/><path class="cls-5" d="M88.89,170.5a1.94,1.94,0,0,1-2.57-.94A1.9,1.9,0,0,1,87.2,167a2,2,0,0,1,2.58.94A1.9,1.9,0,0,1,88.89,170.5Z"/><path class="cls-5" d="M77.38,178.69a1.57,1.57,0,0,1-2.13-1.06,2,2,0,0,1,.89-2.47,1.6,1.6,0,0,1,2.15,1.06A2,2,0,0,1,77.38,178.69Z"/><path class="cls-5" d="M66.77,187.58c-.72.33-1.49-.2-1.73-1.19a2.08,2.08,0,0,1,.85-2.38c.72-.32,1.51.21,1.75,1.19A2.11,2.11,0,0,1,66.77,187.58Z"/><path class="cls-5" d="M57.23,197.31c-.6.27-1.21-.34-1.37-1.34a2.12,2.12,0,0,1,.78-2.27c.6-.26,1.23.34,1.39,1.33A2.17,2.17,0,0,1,57.23,197.31Z"/><path class="cls-5" d="M48.93,208c-.48.18-1-.51-1.07-1.53s.2-2,.69-2.15,1,.51,1.09,1.52S49.42,207.85,48.93,208Z"/><path class="cls-5" d="M42.74,218.7c-.14.87-.61,1.26-1.05.86a2.93,2.93,0,0,1-.56-2.31c.13-.87.6-1.24,1-.84A2.81,2.81,0,0,1,42.74,218.7Z"/><path class="cls-5" d="M37.35,232c-.12.91-.5,1.22-.87.68a4.4,4.4,0,0,1-.48-2.6c.11-.89.51-1.18.88-.66A4.26,4.26,0,0,1,37.35,232Z"/><path class="cls-5" d="M33.73,246.68c-.07.94-.38,1.15-.7.46a7,7,0,0,1-.47-2.94c.06-.93.39-1.12.71-.44A6.75,6.75,0,0,1,33.73,246.68Z"/><path class="cls-5" d="M32.06,263c0,1-.24,1.08-.54.21a12.29,12.29,0,0,1-.55-3.34c0-1,.25-1.05.56-.19A11.65,11.65,0,0,1,32.06,263Z"/><path class="cls-5" d="M32.53,280.94c.09,1-.09,1-.4-.09a23.76,23.76,0,0,1-.74-3.8c-.08-1,.12-1,.43.11A22.78,22.78,0,0,1,32.53,280.94Z"/><path class="cls-6" d="M234.77,4.7a1.32,1.32,0,0,1-1.34,1.56,1.88,1.88,0,0,1-1.63-1.72A1.35,1.35,0,0,1,233.13,3,1.91,1.91,0,0,1,234.77,4.7Z"/><path class="cls-6" d="M235.41,21.28a1.44,1.44,0,0,1-1.66,1.4,1.77,1.77,0,0,1-1.55-1.77,1.46,1.46,0,0,1,1.65-1.42A1.79,1.79,0,0,1,235.41,21.28Z"/><path class="cls-6" d="M234.05,36.32a1.64,1.64,0,0,1-2,1.22,1.56,1.56,0,1,1,.53-3.06A1.68,1.68,0,0,1,234.05,36.32Z"/><path class="cls-6" d="M230.84,49.93a1.9,1.9,0,0,1-2.3,1,1.53,1.53,0,0,1-1.32-1.87A1.92,1.92,0,0,1,229.49,48,1.55,1.55,0,0,1,230.84,49.93Z"/><path class="cls-6" d="M226,62.25a2.24,2.24,0,0,1-2.6.86c-1-.3-1.57-1.16-1.19-1.92a2.25,2.25,0,0,1,2.58-.88C225.79,60.6,226.34,61.47,226,62.25Z"/><path class="cls-6" d="M219.55,73.4a2.64,2.64,0,0,1-2.88.68c-1.08-.37-1.54-1.24-1-2a2.66,2.66,0,0,1,2.87-.7C219.57,71.77,220.06,72.66,219.55,73.4Z"/><path class="cls-6" d="M211.8,83.52a3,3,0,0,1-3.15.49c-1.11-.43-1.5-1.33-.88-2a3,3,0,0,1,3.12-.51C212,81.9,212.42,82.82,211.8,83.52Z"/><path class="cls-6" d="M202.87,92.74a3.43,3.43,0,0,1-3.39.31c-1.14-.49-1.45-1.43-.73-2.09a3.46,3.46,0,0,1,3.37-.33C203.26,91.12,203.6,92.06,202.87,92.74Z"/><path class="cls-6" d="M192.91,101.18a3.76,3.76,0,0,1-3.6.15c-1.15-.57-1.39-1.54-.56-2.17a3.79,3.79,0,0,1,3.59-.16C193.49,99.56,193.76,100.54,192.91,101.18Z"/><path class="cls-6" d="M182.1,109a4.06,4.06,0,0,1-3.79,0c-1.14-.64-1.31-1.65-.38-2.26a4.1,4.1,0,0,1,3.78,0C182.87,107.34,183.05,108.36,182.1,109Z"/><path class="cls-6" d="M170.61,116.28a4.21,4.21,0,0,1-4-.18c-1.14-.7-1.23-1.76-.21-2.36a4.23,4.23,0,0,1,3.93.17C171.54,114.6,171.65,115.66,170.61,116.28Z"/><path class="cls-6" d="M158.6,123.19a4.27,4.27,0,0,1-4.07-.31c-1.13-.79-1.16-1.9-.06-2.49a4.31,4.31,0,0,1,4.06.31C159.68,121.46,159.71,122.58,158.6,123.19Z"/><path class="cls-6" d="M146.23,129.86a4.25,4.25,0,0,1-4.16-.45c-1.11-.86-1.06-2,.1-2.64a4.31,4.31,0,0,1,4.15.44C147.45,128.06,147.42,129.24,146.23,129.86Z"/><path class="cls-6" d="M133.68,136.4a4.09,4.09,0,0,1-4.21-.55c-1.09-.95-1-2.21.23-2.82a4.17,4.17,0,0,1,4.21.56A1.57,1.57,0,0,1,133.68,136.4Z"/><path class="cls-6" d="M120.8,142.86a3.48,3.48,0,0,1-3.79-.68,1.6,1.6,0,0,1,.41-2.73,3.57,3.57,0,0,1,3.8.69A1.58,1.58,0,0,1,120.8,142.86Z"/><path class="cls-6" d="M108.09,149.46a2.93,2.93,0,0,1-3.36-.8,1.65,1.65,0,0,1,.56-2.65,3,3,0,0,1,3.36.8A1.63,1.63,0,0,1,108.09,149.46Z"/><path class="cls-6" d="M95.73,156.32a2.39,2.39,0,0,1-2.93-.9,1.71,1.71,0,0,1,.65-2.57,2.44,2.44,0,0,1,2.94.9A1.69,1.69,0,0,1,95.73,156.32Z"/><path class="cls-6" d="M83.89,163.58a1.94,1.94,0,0,1-2.5-1,1.79,1.79,0,0,1,.7-2.5,2,2,0,0,1,2.52,1A1.79,1.79,0,0,1,83.89,163.58Z"/><path class="cls-6" d="M72.74,171.38a1.6,1.6,0,0,1-2.1-1.09,1.9,1.9,0,0,1,.71-2.43,1.64,1.64,0,0,1,2.12,1.1A1.88,1.88,0,0,1,72.74,171.38Z"/><path class="cls-6" d="M62.45,179.85c-.67.33-1.44-.21-1.72-1.2a2,2,0,0,1,.69-2.35c.67-.3,1.45.23,1.74,1.21A2,2,0,0,1,62.45,179.85Z"/><path class="cls-6" d="M53.2,189.13c-.57.26-1.18-.34-1.39-1.33s.07-2,.64-2.26,1.19.34,1.4,1.33A2.09,2.09,0,0,1,53.2,189.13Z"/><path class="cls-6" d="M45.14,199.34c-.46.19-.94-.48-1.1-1.49s.1-2,.56-2.15,1,.48,1.11,1.48S45.6,199.15,45.14,199.34Z"/><path class="cls-6" d="M39.05,209.64c-.14.81-.61,1.08-1,.59a3.14,3.14,0,0,1-.54-2.34c.13-.81.6-1.06,1-.57A3.08,3.08,0,0,1,39.05,209.64Z"/><path class="cls-6" d="M33.81,222.3c-.11.83-.5,1-.87.42a4.6,4.6,0,0,1-.47-2.59c.11-.83.51-1,.88-.41A4.47,4.47,0,0,1,33.81,222.3Z"/><path class="cls-6" d="M30.28,236.32c-.07.86-.38,1-.7.23a7.18,7.18,0,0,1-.48-2.89c.07-.86.39-.95.72-.22A6.87,6.87,0,0,1,30.28,236.32Z"/><path class="cls-6" d="M28.64,251.84c0,.89-.25.9-.56,0a12,12,0,0,1-.55-3.24c0-.89.26-.88.57,0A11.69,11.69,0,0,1,28.64,251.84Z"/><path class="cls-6" d="M29,269c.08.93-.1.82-.42-.26a22.58,22.58,0,0,1-.71-3.64c-.08-.92.12-.79.44.28A21.43,21.43,0,0,1,29,269Z"/><path class="cls-7" d="M225.68,4.21a1.27,1.27,0,0,1-1.37,1.43,1.77,1.77,0,0,1-1.6-1.59,1.28,1.28,0,0,1,1.35-1.44A1.79,1.79,0,0,1,225.68,4.21Z"/><path class="cls-7" d="M226.18,20.2a1.4,1.4,0,0,1-1.67,1.27A1.69,1.69,0,0,1,223,19.83a1.42,1.42,0,0,1,1.66-1.29A1.71,1.71,0,0,1,226.18,20.2Z"/><path class="cls-7" d="M224.76,34.69a1.61,1.61,0,0,1-2,1.1,1.58,1.58,0,0,1-1.45-1.69,1.77,1.77,0,0,1,3.43.59Z"/><path class="cls-7" d="M221.56,47.81a1.88,1.88,0,0,1-2.27.92c-1-.23-1.6-1-1.35-1.75a1.88,1.88,0,0,1,2.25-.93C221.19,46.27,221.81,47.06,221.56,47.81Z"/><path class="cls-7" d="M216.75,59.67a2.23,2.23,0,0,1-2.55.75c-1-.3-1.6-1.1-1.24-1.81a2.22,2.22,0,0,1,2.53-.75C216.54,58.14,217.11,59,216.75,59.67Z"/><path class="cls-7" d="M210.48,70.41a2.58,2.58,0,0,1-2.81.56c-1.09-.36-1.58-1.19-1.11-1.86a2.59,2.59,0,0,1,2.79-.57C210.44,68.89,211,69.73,210.48,70.41Z"/><path class="cls-7" d="M202.92,80.14a3,3,0,0,1-3.06.39c-1.11-.43-1.54-1.29-1-1.92a3,3,0,0,1,3-.4C203.05,78.63,203.5,79.5,202.92,80.14Z"/><path class="cls-7" d="M194.22,89a3.35,3.35,0,0,1-3.29.21c-1.13-.49-1.49-1.38-.82-2a3.38,3.38,0,0,1,3.27-.23C194.52,87.49,194.9,88.39,194.22,89Z"/><path class="cls-7" d="M184.54,97.11a3.67,3.67,0,0,1-3.48,0c-1.15-.56-1.44-1.48-.67-2.06a3.73,3.73,0,0,1,3.47-.06C185,95.59,185.33,96.52,184.54,97.11Z"/><path class="cls-7" d="M174.05,104.6a4,4,0,0,1-3.66-.12c-1.15-.64-1.38-1.6-.52-2.16a4,4,0,0,1,3.65.11C174.68,103.05,174.92,104,174.05,104.6Z"/><path class="cls-7" d="M162.9,111.58a4.1,4.1,0,0,1-3.81-.27c-1.14-.71-1.3-1.72-.36-2.27a4.21,4.21,0,0,1,3.8.27C163.68,110,163.85,111,162.9,111.58Z"/><path class="cls-7" d="M151.25,118.19a4.16,4.16,0,0,1-3.92-.41c-1.13-.78-1.22-1.85-.21-2.39a4.23,4.23,0,0,1,3.91.41C152.17,116.57,152.27,117.64,151.25,118.19Z"/><path class="cls-7" d="M139.26,124.56a4.12,4.12,0,0,1-4-.54c-1.11-.86-1.14-2-.07-2.54a4.22,4.22,0,0,1,4,.54C140.31,122.87,140.35,124,139.26,124.56Z"/><path class="cls-7" d="M127.09,130.81a4,4,0,0,1-4-.66c-1.09-.94-1.07-2.16,0-2.71a4.09,4.09,0,0,1,4,.66C128.26,129,128.23,130.24,127.09,130.81Z"/><path class="cls-7" d="M114.62,137a3.4,3.4,0,0,1-3.64-.78c-.94-1-.83-2.13.23-2.63a3.48,3.48,0,0,1,3.65.78C115.81,135.27,115.7,136.44,114.62,137Z"/><path class="cls-7" d="M102.32,143.24a2.88,2.88,0,0,1-3.24-.88,1.57,1.57,0,0,1,.37-2.57,3,3,0,0,1,3.25.88A1.56,1.56,0,0,1,102.32,143.24Z"/><path class="cls-7" d="M90.35,149.76a2.39,2.39,0,0,1-2.84-1,1.64,1.64,0,0,1,.47-2.51,2.47,2.47,0,0,1,2.86,1A1.61,1.61,0,0,1,90.35,149.76Z"/><path class="cls-7" d="M78.89,156.67a2,2,0,0,1-2.45-1,1.71,1.71,0,0,1,.53-2.44,2,2,0,0,1,2.46,1A1.7,1.7,0,0,1,78.89,156.67Z"/><path class="cls-7" d="M68.1,164.08A1.64,1.64,0,0,1,66,163a1.81,1.81,0,0,1,.54-2.38,1.69,1.69,0,0,1,2.09,1.13A1.81,1.81,0,0,1,68.1,164.08Z"/><path class="cls-7" d="M58.13,172.13c-.63.31-1.39-.24-1.72-1.22a1.93,1.93,0,0,1,.54-2.32c.62-.29,1.4.25,1.73,1.23A1.91,1.91,0,0,1,58.13,172.13Z"/><path class="cls-7" d="M49.16,181c-.52.26-1.15-.34-1.4-1.33s0-2,.49-2.24,1.17.34,1.42,1.32S49.69,180.69,49.16,181Z"/><path class="cls-7" d="M41.35,190.66c-.43.2-.93-.45-1.13-1.45s0-2,.43-2.16,1,.46,1.14,1.45S41.78,190.46,41.35,190.66Z"/><path class="cls-7" d="M35.36,200.58c-.15.74-.61.89-1,.32a3.42,3.42,0,0,1-.52-2.37c.14-.74.61-.87,1.05-.3A3.3,3.3,0,0,1,35.36,200.58Z"/><path class="cls-7" d="M30.28,212.62c-.12.76-.51.84-.88.18a4.85,4.85,0,0,1-.46-2.6c.11-.76.51-.82.88-.16A4.66,4.66,0,0,1,30.28,212.62Z"/><path class="cls-7" d="M26.84,226c-.07.79-.39.8-.72,0a7.25,7.25,0,0,1-.47-2.84c.06-.79.39-.78.72,0A7,7,0,0,1,26.84,226Z"/><path class="cls-7" d="M25.21,240.72c0,.82-.26.74-.57-.18a11.61,11.61,0,0,1-.55-3.15c0-.81.27-.71.58.2A11.25,11.25,0,0,1,25.21,240.72Z"/><path class="cls-7" d="M25.56,257.05c.07.85-.13.67-.44-.41a21.51,21.51,0,0,1-.7-3.49c-.07-.83.14-.63.45.44A20.5,20.5,0,0,1,25.56,257.05Z"/><path class="cls-8" d="M216.58,3.72A1.22,1.22,0,0,1,215.2,5a1.67,1.67,0,0,1-1.58-1.46A1.23,1.23,0,0,1,215,2.25,1.69,1.69,0,0,1,216.58,3.72Z"/><path class="cls-8" d="M217,19.12a1.38,1.38,0,0,1-1.68,1.14,1.61,1.61,0,0,1-1.53-1.51,1.38,1.38,0,0,1,1.66-1.16A1.64,1.64,0,0,1,217,19.12Z"/><path class="cls-8" d="M215.46,33.07a1.59,1.59,0,0,1-2,1c-.95-.17-1.6-.87-1.47-1.58a1.61,1.61,0,0,1,1.95-1C214.93,31.64,215.6,32.36,215.46,33.07Z"/><path class="cls-8" d="M212.28,45.69a1.88,1.88,0,0,1-2.24.81c-1-.24-1.62-1-1.39-1.64a1.88,1.88,0,0,1,2.23-.81C211.88,44.27,212.51,45,212.28,45.69Z"/><path class="cls-8" d="M207.54,57.1a2.2,2.2,0,0,1-2.5.63c-1-.3-1.62-1-1.29-1.69a2.22,2.22,0,0,1,2.49-.64C207.29,55.68,207.88,56.45,207.54,57.1Z"/><path class="cls-8" d="M201.41,67.42a2.56,2.56,0,0,1-2.75.45c-1.08-.36-1.6-1.14-1.17-1.75a2.62,2.62,0,0,1,2.74-.47C201.31,66,201.85,66.8,201.41,67.42Z"/><path class="cls-8" d="M194,76.77a3,3,0,0,1-3,.28c-1.11-.43-1.58-1.24-1.05-1.82a3,3,0,0,1,3-.29C194.09,75.36,194.57,76.18,194,76.77Z"/><path class="cls-8" d="M185.58,85.27a3.35,3.35,0,0,1-3.19.11c-1.14-.5-1.54-1.34-.92-1.89a3.35,3.35,0,0,1,3.18-.12C185.78,83.85,186.21,84.71,185.58,85.27Z"/><path class="cls-8" d="M176.18,93A3.63,3.63,0,0,1,172.8,93c-1.14-.56-1.49-1.44-.78-2a3.67,3.67,0,0,1,3.36,0C176.54,91.61,176.9,92.5,176.18,93Z"/><path class="cls-8" d="M166,100.2a3.9,3.9,0,0,1-3.54-.21c-1.15-.64-1.43-1.56-.64-2.06a3.92,3.92,0,0,1,3.52.2C166.5,98.76,166.8,99.69,166,100.2Z"/><path class="cls-8" d="M155.18,106.88a4,4,0,0,1-3.66-.36c-1.15-.71-1.37-1.68-.5-2.17a4,4,0,0,1,3.65.36C155.83,105.4,156.06,106.38,155.18,106.88Z"/><path class="cls-8" d="M143.89,113.2a4.08,4.08,0,0,1-3.76-.51c-1.13-.78-1.29-1.81-.36-2.3a4.15,4.15,0,0,1,3.75.51C144.67,111.67,144.84,112.7,143.89,113.2Z"/><path class="cls-8" d="M132.28,119.27a4,4,0,0,1-3.83-.64c-1.11-.86-1.22-1.95-.23-2.44a4.1,4.1,0,0,1,3.83.64C133.18,117.67,133.28,118.76,132.28,119.27Z"/><path class="cls-8" d="M120.5,125.22a3.89,3.89,0,0,1-3.86-.77c-1.09-.94-1.14-2.1-.11-2.61a4,4,0,0,1,3.86.77C121.5,123.53,121.55,124.7,120.5,125.22Z"/><path class="cls-8" d="M108.44,131.07a3.37,3.37,0,0,1-3.5-.87c-.94-.95-.91-2.1.06-2.55a3.44,3.44,0,0,1,3.51.87C109.47,129.45,109.43,130.59,108.44,131.07Z"/><path class="cls-8" d="M96.54,137a2.88,2.88,0,0,1-3.13-1c-.8-1-.71-2.08.21-2.5a2.93,2.93,0,0,1,3.13,1C97.57,135.47,97.47,136.59,96.54,137Z"/><path class="cls-8" d="M85,143.21a2.41,2.41,0,0,1-2.76-1c-.67-1-.54-2.06.3-2.44a2.46,2.46,0,0,1,2.77,1C86,141.72,85.83,142.81,85,143.21Z"/><path class="cls-8" d="M73.89,149.75a2,2,0,0,1-2.39-1.09c-.56-1-.4-2,.36-2.4a2,2,0,0,1,2.4,1.1A1.63,1.63,0,0,1,73.89,149.75Z"/><path class="cls-8" d="M63.45,156.78c-.68.33-1.59-.19-2-1.16s-.28-2,.39-2.35,1.59.2,2.05,1.17A1.74,1.74,0,0,1,63.45,156.78Z"/><path class="cls-8" d="M53.81,164.42c-.59.29-1.35-.26-1.71-1.25s-.2-2,.38-2.29,1.36.27,1.73,1.24S54.39,164.12,53.81,164.42Z"/><path class="cls-8" d="M45.13,172.78c-.5.26-1.13-.34-1.42-1.33s-.14-2,.35-2.24,1.14.35,1.43,1.33S45.62,172.52,45.13,172.78Z"/><path class="cls-8" d="M37.56,182c-.41.21-.92-.43-1.16-1.43s-.1-2,.3-2.17.93.43,1.17,1.42S38,181.78,37.56,182Z"/><path class="cls-8" d="M31.68,191.52c-.15.67-.62.7-1,.06a3.67,3.67,0,0,1-.51-2.4c.15-.67.62-.69,1.05,0A3.53,3.53,0,0,1,31.68,191.52Z"/><path class="cls-8" d="M26.74,202.93c-.11.69-.5.67-.87-.06a5,5,0,0,1-.47-2.58c.12-.69.51-.66.89.07A4.84,4.84,0,0,1,26.74,202.93Z"/><path class="cls-8" d="M23.39,215.58c-.07.72-.39.63-.72-.2a7.25,7.25,0,0,1-.48-2.8c.07-.71.4-.61.73.21A7,7,0,0,1,23.39,215.58Z"/><path class="cls-8" d="M21.78,229.6c0,.74-.27.58-.58-.37a11.61,11.61,0,0,1-.55-3c0-.73.28-.56.59.38A11.36,11.36,0,0,1,21.78,229.6Z"/><path class="cls-8" d="M22.07,245.11c.06.76-.14.51-.45-.57a20.44,20.44,0,0,1-.69-3.33c-.06-.75.15-.49.47.58A20.51,20.51,0,0,1,22.07,245.11Z"/><path class="cls-9" d="M207.49,3.24a1.2,1.2,0,0,1-1.41,1.17,1.6,1.6,0,0,1-1.56-1.33,1.21,1.21,0,0,1,1.39-1.19A1.62,1.62,0,0,1,207.49,3.24Z"/><path class="cls-9" d="M207.72,18c0,.68-.8,1.13-1.68,1s-1.57-.73-1.53-1.39.78-1.14,1.66-1A1.59,1.59,0,0,1,207.72,18Z"/><path class="cls-9" d="M206.17,31.45c-.13.65-1,1-1.95.86s-1.61-.82-1.48-1.46,1-1,1.94-.87S206.3,30.8,206.17,31.45Z"/><path class="cls-9" d="M203,43.57c-.22.62-1.22.93-2.22.69s-1.62-.91-1.41-1.52,1.2-.92,2.2-.7S203.21,43,203,43.57Z"/><path class="cls-9" d="M198.34,54.53c-.31.59-1.42.82-2.46.52s-1.64-1-1.33-1.58a2.22,2.22,0,0,1,2.45-.54C198,53.22,198.65,53.94,198.34,54.53Z"/><path class="cls-9" d="M192.35,64.43c-.41.56-1.61.71-2.7.35s-1.63-1.1-1.23-1.65a2.61,2.61,0,0,1,2.68-.36C192.18,63.12,192.75,63.87,192.35,64.43Z"/><path class="cls-9" d="M185.16,73.39a3,3,0,0,1-2.9.18c-1.12-.43-1.62-1.19-1.13-1.71a3,3,0,0,1,2.89-.2C185.14,72.08,185.65,72.86,185.16,73.39Z"/><path class="cls-9" d="M176.94,81.53a3.33,3.33,0,0,1-3.1,0c-1.14-.5-1.59-1.3-1-1.8a3.37,3.37,0,0,1,3.09,0C177.05,80.21,177.51,81,176.94,81.53Z"/><path class="cls-9" d="M167.81,89a3.66,3.66,0,0,1-3.27-.15c-1.14-.56-1.54-1.4-.89-1.88a3.69,3.69,0,0,1,3.26.14C168.07,87.63,168.47,88.48,167.81,89Z"/><path class="cls-9" d="M157.94,95.81a3.84,3.84,0,0,1-3.41-.3c-1.15-.64-1.49-1.52-.77-2a3.91,3.91,0,0,1,3.41.29C158.33,94.46,158.68,95.34,157.94,95.81Z"/><path class="cls-9" d="M147.47,102.19a4,4,0,0,1-3.53-.46c-1.15-.71-1.43-1.64-.64-2.08a4.06,4.06,0,0,1,3.53.45C148,100.79,148.27,101.73,147.47,102.19Z"/><path class="cls-9" d="M136.54,108.2a4,4,0,0,1-3.62-.6c-1.13-.78-1.36-1.77-.51-2.2A4.09,4.09,0,0,1,136,106C137.17,106.76,137.41,107.75,136.54,108.2Z"/><path class="cls-9" d="M125.31,114a4,4,0,0,1-3.68-.74c-1.11-.86-1.29-1.91-.39-2.35a4.07,4.07,0,0,1,3.68.73C126.05,112.47,126.22,113.52,125.31,114Z"/><path class="cls-9" d="M113.92,119.63a3.85,3.85,0,0,1-3.71-.86c-1.09-.94-1.21-2.07-.27-2.52a3.93,3.93,0,0,1,3.7.86C114.75,118,114.87,119.16,113.92,119.63Z"/><path class="cls-9" d="M102.26,125.17a3.34,3.34,0,0,1-3.37-1c-.94-.95-1-2-.1-2.46a3.43,3.43,0,0,1,3.37,1C103.13,123.64,103.17,124.74,102.26,125.17Z"/><path class="cls-9" d="M90.77,130.8a2.85,2.85,0,0,1-3-1c-.82-1-.81-2,0-2.43a2.94,2.94,0,0,1,3,1C91.64,129.33,91.62,130.41,90.77,130.8Z"/><path class="cls-9" d="M79.6,136.66a2.44,2.44,0,0,1-2.68-1.09c-.7-1-.64-2,.13-2.39a2.49,2.49,0,0,1,2.69,1.09C80.45,135.23,80.38,136.29,79.6,136.66Z"/><path class="cls-9" d="M68.89,142.84c-.71.34-1.75-.17-2.34-1.14s-.5-2,.2-2.35,1.75.19,2.35,1.15S69.6,142.51,68.89,142.84Z"/><path class="cls-9" d="M58.8,149.49c-.63.31-1.52-.23-2-1.21s-.39-2,.23-2.31,1.53.24,2,1.2S59.43,149.17,58.8,149.49Z"/><path class="cls-9" d="M49.48,156.7c-.54.29-1.3-.28-1.7-1.26s-.3-2,.23-2.28,1.32.29,1.72,1.26S50,156.42,49.48,156.7Z"/><path class="cls-9" d="M41.09,164.61c-.46.26-1.1-.34-1.43-1.33s-.24-2,.22-2.24,1.1.35,1.43,1.33S41.54,164.35,41.09,164.61Z"/><path class="cls-9" d="M33.76,173.32c-.37.22-.9-.41-1.18-1.4s-.2-2,.18-2.19.91.41,1.18,1.4S34.14,173.1,33.76,173.32Z"/><path class="cls-9" d="M28,182.45c-.15.61-.62.52-1-.2a3.85,3.85,0,0,1-.49-2.41c.16-.61.63-.51,1.05.2A3.69,3.69,0,0,1,28,182.45Z"/><path class="cls-9" d="M23.21,193.24c-.12.63-.51.5-.88-.29a5.12,5.12,0,0,1-.46-2.58c.11-.62.51-.48.89.31A5,5,0,0,1,23.21,193.24Z"/><path class="cls-9" d="M20,205.21c-.08.65-.4.47-.73-.41a7.41,7.41,0,0,1-.49-2.75c.07-.65.41-.45.74.42A7,7,0,0,1,20,205.21Z"/><path class="cls-9" d="M18.35,218.48c0,.66-.27.42-.59-.55a11.66,11.66,0,0,1-.55-3c0-.66.29-.41.6.56A10.6,10.6,0,0,1,18.35,218.48Z"/><path class="cls-9" d="M18.58,233.16c.05.69-.15.38-.47-.71a20.38,20.38,0,0,1-.67-3.19c-.05-.67.17-.35.48.72A18.64,18.64,0,0,1,18.58,233.16Z"/><path class="cls-10" d="M198.4,2.75c0,.63-.61,1.1-1.43,1a1.52,1.52,0,0,1-1.54-1.21c0-.62.59-1.1,1.41-1.06A1.55,1.55,0,0,1,198.4,2.75Z"/><path class="cls-10" d="M198.48,17c0,.61-.79,1-1.68.91s-1.57-.68-1.52-1.29.78-1,1.67-.91S198.52,16.35,198.48,17Z"/><path class="cls-10" d="M196.88,29.82c-.12.59-1,.92-1.94.75s-1.61-.77-1.49-1.34,1-.92,1.93-.76S197,29.24,196.88,29.82Z"/><path class="cls-10" d="M193.71,41.45c-.2.56-1.18.82-2.18.59s-1.64-.87-1.44-1.42,1.17-.82,2.17-.59S193.92,40.89,193.71,41.45Z"/><path class="cls-10" d="M189.13,52c-.28.53-1.37.72-2.41.42s-1.66-1-1.38-1.48,1.36-.72,2.41-.43S189.42,51.42,189.13,52Z"/><path class="cls-10" d="M183.28,61.44c-.37.5-1.55.61-2.64.25s-1.66-1-1.29-1.55,1.54-.62,2.62-.26S183.65,60.93,183.28,61.44Z"/><path class="cls-10" d="M176.28,70c-.45.48-1.72.52-2.83.09s-1.65-1.15-1.2-1.62,1.7-.52,2.82-.1S176.73,69.53,176.28,70Z"/><path class="cls-10" d="M168.29,77.8a3.34,3.34,0,0,1-3-.08c-1.13-.49-1.62-1.25-1.1-1.7s1.86-.42,3,.06S168.82,77.34,168.29,77.8Z"/><path class="cls-10" d="M159.45,84.9a3.67,3.67,0,0,1-3.17-.24c-1.14-.56-1.59-1.36-1-1.79a3.62,3.62,0,0,1,3.15.23C159.6,83.65,160.05,84.46,159.45,84.9Z"/><path class="cls-10" d="M149.89,91.42a3.82,3.82,0,0,1-3.3-.39c-1.15-.63-1.54-1.48-.88-1.88a3.9,3.9,0,0,1,3.29.38C150.16,90.15,150.56,91,149.89,91.42Z"/><path class="cls-10" d="M139.75,97.49a4,4,0,0,1-3.4-.54c-1.14-.71-1.48-1.6-.76-2a4,4,0,0,1,3.39.54C140.14,96.18,140.49,97.08,139.75,97.49Z"/><path class="cls-10" d="M129.19,103.2a4,4,0,0,1-3.48-.68c-1.14-.78-1.42-1.73-.65-2.12a4.08,4.08,0,0,1,3.48.68C129.68,101.85,130,102.8,129.19,103.2Z"/><path class="cls-10" d="M118.33,108.68a3.91,3.91,0,0,1-3.53-.82c-1.11-.86-1.35-1.87-.53-2.26a4,4,0,0,1,3.53.82C118.93,107.26,119.17,108.28,118.33,108.68Z"/><path class="cls-10" d="M107.33,114c-.87.41-2.46,0-3.55-1s-1.28-2-.43-2.42,2.44,0,3.55,1S108.2,113.62,107.33,114Z"/><path class="cls-10" d="M96.08,119.27a3.33,3.33,0,0,1-3.24-1c-1-.95-1.07-2-.26-2.39a3.39,3.39,0,0,1,3.24,1C96.8,117.82,96.91,118.89,96.08,119.27Z"/><path class="cls-10" d="M85,124.59a2.88,2.88,0,0,1-2.92-1.1c-.84-1-.9-2-.13-2.36s2.07.15,2.92,1.1S85.77,124.23,85,124.59Z"/><path class="cls-10" d="M74.21,130.1c-.71.34-1.87-.18-2.59-1.15s-.74-2,0-2.33,1.87.2,2.6,1.15S74.93,129.77,74.21,130.1Z"/><path class="cls-10" d="M63.88,135.94c-.64.31-1.66-.23-2.28-1.2s-.6-2,0-2.31,1.67.23,2.3,1.2S64.53,135.62,63.88,135.94Z"/><path class="cls-10" d="M54.15,142.19c-.58.3-1.46-.25-2-1.23s-.49-2,.08-2.3,1.46.28,2,1.24S54.73,141.9,54.15,142.19Z"/><path class="cls-10" d="M45.16,149c-.5.28-1.26-.29-1.7-1.28s-.4-2,.09-2.27,1.27.31,1.71,1.28S45.66,148.71,45.16,149Z"/><path class="cls-10" d="M37.05,156.44c-.43.26-1.07-.34-1.44-1.33s-.34-2,.08-2.24,1.07.34,1.45,1.33S37.47,156.19,37.05,156.44Z"/><path class="cls-10" d="M30,164.66c-.35.23-.88-.39-1.2-1.39s-.29-2,0-2.21.89.39,1.21,1.38S30.31,164.43,30,164.66Z"/><path class="cls-10" d="M24.31,173.37c-.16.55-.63.35-1-.44a4.07,4.07,0,0,1-.48-2.43c.16-.54.63-.34,1.06.45A3.84,3.84,0,0,1,24.31,173.37Z"/><path class="cls-10" d="M19.68,183.54c-.12.56-.52.34-.89-.52a5.25,5.25,0,0,1-.46-2.56c.12-.55.52-.31.9.53A5.2,5.2,0,0,1,19.68,183.54Z"/><path class="cls-10" d="M16.5,194.83c-.07.58-.4.31-.74-.61a7.5,7.5,0,0,1-.48-2.7c.07-.58.41-.3.74.61A7.23,7.23,0,0,1,16.5,194.83Z"/><path class="cls-10" d="M14.92,207.35c0,.6-.28.28-.6-.71a12,12,0,0,1-.55-2.88c0-.58.29-.26.61.73A10.63,10.63,0,0,1,14.92,207.35Z"/><path class="cls-10" d="M15.09,221.22c.05.61-.16.24-.48-.85a21,21,0,0,1-.66-3.05c0-.6.18-.22.5.85A18.61,18.61,0,0,1,15.09,221.22Z"/><path class="cls-11" d="M189.3,2.26c0,.57-.62,1-1.44.94s-1.5-.53-1.53-1.1.62-1,1.43-1S189.27,1.69,189.3,2.26Z"/><path class="cls-11" d="M189.25,15.88c0,.55-.8.9-1.68.8S186,16,186,15.5s.79-.9,1.68-.8S189.29,15.33,189.25,15.88Z"/><path class="cls-11" d="M187.59,28.2c-.12.53-1,.81-1.93.64s-1.62-.72-1.5-1.24,1-.81,1.91-.65S187.7,27.67,187.59,28.2Z"/><path class="cls-11" d="M184.43,39.33c-.19.5-1.15.72-2.15.49s-1.66-.82-1.47-1.32S182,37.79,183,38,184.62,38.83,184.43,39.33Z"/><path class="cls-11" d="M179.93,49.38c-.26.48-1.33.62-2.37.32s-1.68-.91-1.42-1.38,1.32-.62,2.36-.33S180.19,48.9,179.93,49.38Z"/><path class="cls-11" d="M174.21,58.44c-.34.46-1.5.53-2.58.17s-1.68-1-1.35-1.46,1.48-.52,2.57-.17S174.55,58,174.21,58.44Z"/><path class="cls-11" d="M167.4,66.64c-.41.43-1.65.42-2.76,0s-1.68-1.12-1.27-1.54,1.63-.43,2.75,0S167.81,66.21,167.4,66.64Z"/><path class="cls-11" d="M159.65,74.06c-.48.41-1.79.34-2.93-.16s-1.66-1.22-1.18-1.62,1.77-.33,2.91.16S160.13,73.65,159.65,74.06Z"/><path class="cls-11" d="M151.08,80.82c-.55.39-1.92.25-3.07-.31s-1.63-1.33-1.09-1.71,1.91-.24,3.06.31S151.63,80.43,151.08,80.82Z"/><path class="cls-11" d="M141.83,87c-.61.38-2,.16-3.19-.47s-1.58-1.44-1-1.81,2-.15,3.18.47S142.44,86.66,141.83,87Z"/><path class="cls-11" d="M132,92.79c-.67.36-2.14.08-3.28-.62s-1.54-1.56-.89-1.92,2.12-.08,3.28.62S132.7,92.43,132,92.79Z"/><path class="cls-11" d="M121.83,98.21c-.71.36-2.21,0-3.34-.77s-1.48-1.69-.78-2,2.2,0,3.34.76S122.55,97.85,121.83,98.21Z"/><path class="cls-11" d="M111.36,103.39c-.76.36-2.28,0-3.39-.9s-1.42-1.84-.68-2.18,2.26,0,3.39.9S112.11,103,111.36,103.39Z"/><path class="cls-11" d="M100.74,108.44c-.79.37-2.31-.09-3.4-1s-1.35-2-.58-2.34,2.3.11,3.41,1S101.53,108.08,100.74,108.44Z"/><path class="cls-11" d="M89.9,113.37c-.75.34-2.14-.15-3.11-1.11s-1.15-2-.42-2.31,2.14.17,3.12,1.11S90.66,113,89.9,113.37Z"/><path class="cls-11" d="M79.22,118.37c-.71.32-2-.2-2.82-1.16s-1-2-.28-2.3,2,.21,2.82,1.16S79.93,118.05,79.22,118.37Z"/><path class="cls-11" d="M68.83,123.55c-.65.31-1.78-.23-2.52-1.2s-.83-2-.18-2.29,1.77.25,2.53,1.21S69.49,123.25,68.83,123.55Z"/><path class="cls-11" d="M58.88,129c-.59.29-1.59-.27-2.23-1.24s-.7-2-.12-2.28,1.59.28,2.25,1.24S59.47,128.74,58.88,129Z"/><path class="cls-11" d="M49.5,134.9c-.53.28-1.4-.29-2-1.27s-.58-2-.06-2.27,1.4.3,2,1.27S50,134.62,49.5,134.9Z"/><path class="cls-11" d="M40.83,141.28c-.46.27-1.22-.31-1.69-1.3s-.5-2,0-2.27,1.22.33,1.7,1.31S41.28,141,40.83,141.28Z"/><path class="cls-11" d="M33,148.28c-.39.26-1-.34-1.44-1.34s-.43-2,0-2.25,1,.35,1.45,1.33S33.39,148,33,148.28Z"/><path class="cls-11" d="M26.16,156c-.32.25-.86-.37-1.22-1.37s-.39-2-.07-2.25.87.38,1.23,1.38S26.48,155.76,26.16,156Z"/><path class="cls-11" d="M20.63,164.28c-.16.49-.63.19-1.05-.68a4.09,4.09,0,0,1-.46-2.43c.16-.48.64-.17,1.06.69A4,4,0,0,1,20.63,164.28Z"/><path class="cls-11" d="M16.15,173.84c-.12.5-.52.17-.9-.74a5.26,5.26,0,0,1-.45-2.54c.12-.49.52-.16.9.75A5.31,5.31,0,0,1,16.15,173.84Z"/><path class="cls-11" d="M13.06,184.45c-.08.52-.41.16-.75-.8a7.49,7.49,0,0,1-.49-2.66c.07-.51.41-.14.76.81A7.32,7.32,0,0,1,13.06,184.45Z"/><path class="cls-11" d="M11.5,196.22c0,.54-.29.15-.62-.87a11.18,11.18,0,0,1-.55-2.79c0-.52.3-.12.62.88A11.42,11.42,0,0,1,11.5,196.22Z"/><path class="cls-11" d="M11.6,209.27c0,.55-.17.11-.49-1a18.56,18.56,0,0,1-.64-2.93c0-.53.18-.09.5,1A19.17,19.17,0,0,1,11.6,209.27Z"/><path class="cls-12" d="M180.21,1.78c0,.51-.64.88-1.46.83s-1.49-.49-1.51-1,.63-.88,1.45-.84S180.19,1.27,180.21,1.78Z"/><path class="cls-12" d="M180,14.8c0,.49-.8.8-1.69.69s-1.56-.58-1.52-1.07.79-.8,1.68-.7S180.06,14.31,180,14.8Z"/><path class="cls-12" d="M178.29,26.58c-.1.47-1,.71-1.91.54s-1.62-.68-1.52-1.14,1-.71,1.91-.55S178.4,26.11,178.29,26.58Z"/><path class="cls-12" d="M175.15,37.21c-.17.45-1.13.62-2.13.39s-1.66-.77-1.49-1.22,1.12-.62,2.12-.39S175.33,36.76,175.15,37.21Z"/><path class="cls-12" d="M170.72,46.8c-.24.43-1.28.53-2.33.24s-1.69-.88-1.45-1.3,1.27-.52,2.32-.24S171,46.38,170.72,46.8Z"/><path class="cls-12" d="M165.14,55.45c-.31.41-1.44.44-2.52.08s-1.71-1-1.41-1.37,1.43-.44,2.52-.08S165.45,55.05,165.14,55.45Z"/><path class="cls-12" d="M158.52,63.26c-.37.38-1.58.34-2.69-.09s-1.71-1.07-1.34-1.45,1.57-.34,2.68.08S158.9,62.88,158.52,63.26Z"/><path class="cls-12" d="M151,70.32c-.44.37-1.72.26-2.85-.24s-1.7-1.18-1.27-1.53,1.7-.25,2.84.23S151.44,70,151,70.32Z"/><path class="cls-12" d="M142.71,76.75c-.49.35-1.82.17-3-.4s-1.67-1.29-1.19-1.62,1.82-.17,3,.39S143.21,76.4,142.71,76.75Z"/><path class="cls-12" d="M133.78,82.64c-.56.33-1.94.08-3.08-.55s-1.64-1.4-1.1-1.73,1.92-.08,3.07.55S134.33,82.31,133.78,82.64Z"/><path class="cls-12" d="M124.32,88.09c-.6.32-2,0-3.16-.69s-1.59-1.53-1-1.84,2,0,3.16.69S124.92,87.77,124.32,88.09Z"/><path class="cls-12" d="M114.48,93.21c-.64.32-2.09-.06-3.22-.84s-1.54-1.66-.91-2,2.08.06,3.22.83S115.13,92.89,114.48,93.21Z"/><path class="cls-12" d="M104.38,98.1c-.68.31-2.14-.13-3.25-1s-1.48-1.8-.81-2.11,2.12.14,3.25,1S105.06,97.78,104.38,98.1Z"/><path class="cls-12" d="M94.15,102.85c-.71.32-2.17-.18-3.26-1.11s-1.41-1.95-.71-2.26,2.15.19,3.26,1.11S94.87,102.53,94.15,102.85Z"/><path class="cls-12" d="M83.72,107.47c-.68.3-2-.22-3-1.17s-1.23-2-.56-2.25,2,.23,3,1.18S84.4,107.17,83.72,107.47Z"/><path class="cls-12" d="M73.44,112.16c-.64.28-1.85-.26-2.72-1.23s-1.06-2-.43-2.24,1.84.27,2.72,1.22S74.08,111.87,73.44,112.16Z"/><path class="cls-12" d="M63.45,117c-.59.27-1.69-.29-2.45-1.26s-.92-2-.33-2.25,1.68.3,2.45,1.26S64,116.73,63.45,117Z"/><path class="cls-12" d="M53.87,122.12c-.54.27-1.51-.3-2.18-1.28s-.79-2-.26-2.25,1.51.32,2.19,1.29S54.41,121.85,53.87,122.12Z"/><path class="cls-12" d="M44.84,127.62c-.48.26-1.34-.32-1.92-1.31s-.68-2-.21-2.26,1.34.33,1.93,1.31S45.32,127.35,44.84,127.62Z"/><path class="cls-12" d="M36.49,133.58c-.42.27-1.17-.33-1.68-1.33s-.59-2-.17-2.26,1.16.34,1.68,1.33S36.91,133.32,36.49,133.58Z"/><path class="cls-12" d="M29,140.13c-.35.26-1-.35-1.44-1.35s-.53-2-.18-2.28,1,.35,1.46,1.35S29.31,139.87,29,140.13Z"/><path class="cls-12" d="M22.36,147.35c-.3.26-.85-.35-1.24-1.37s-.47-2-.19-2.28.85.36,1.25,1.37S22.65,147.1,22.36,147.35Z"/><path class="cls-12" d="M17,155.19c-.18.43-.65,0-1.07-.91a4.22,4.22,0,0,1-.44-2.44c.17-.41.65,0,1.06.92A4.13,4.13,0,0,1,17,155.19Z"/><path class="cls-12" d="M12.62,164.13c-.13.44-.53,0-.9-.94a5.47,5.47,0,0,1-.46-2.53c.12-.43.53,0,.91,1A5.46,5.46,0,0,1,12.62,164.13Z"/><path class="cls-12" d="M9.61,174.07c-.07.45-.41,0-.75-1a7.48,7.48,0,0,1-.5-2.61c.08-.45.42,0,.77,1A7.25,7.25,0,0,1,9.61,174.07Z"/><path class="cls-12" d="M8.07,185.1c0,.46-.3,0-.62-1a10.94,10.94,0,0,1-.56-2.71c0-.45.31,0,.63,1A10.74,10.74,0,0,1,8.07,185.1Z"/><path class="cls-12" d="M8.12,197.33c0,.48-.19,0-.51-1.09A19.23,19.23,0,0,1,7,193.43c0-.47.2,0,.51,1.09A20,20,0,0,1,8.12,197.33Z"/><path class="cls-13" d="M171.11,1.29c0,.45-.64.78-1.46.73s-1.49-.44-1.5-.89.64-.78,1.46-.74S171.1.84,171.11,1.29Z"/><path class="cls-13" d="M170.79,13.72c0,.43-.8.7-1.69.59s-1.57-.54-1.52-1,.79-.7,1.68-.6S170.83,13.28,170.79,13.72Z"/><path class="cls-13" d="M169,25c-.1.42-.95.62-1.9.45s-1.63-.63-1.53-1,1-.61,1.9-.45S169.1,24.54,169,25Z"/><path class="cls-13" d="M165.87,35.09c-.16.4-1.1.53-2.1.3s-1.68-.73-1.52-1.12,1.09-.53,2.09-.31S166,34.69,165.87,35.09Z"/><path class="cls-13" d="M161.52,44.23c-.22.38-1.25.44-2.29.14s-1.72-.83-1.5-1.2S159,42.73,160,43,161.74,43.85,161.52,44.23Z"/><path class="cls-13" d="M156.07,52.46c-.28.36-1.39.35-2.47,0s-1.73-.93-1.46-1.29,1.38-.35,2.47,0S156.35,52.1,156.07,52.46Z"/><path class="cls-13" d="M149.64,59.88c-.33.34-1.51.27-2.62-.16s-1.74-1-1.41-1.37,1.5-.26,2.62.16S150,59.54,149.64,59.88Z"/><path class="cls-13" d="M142.36,66.59c-.39.32-1.63.18-2.76-.32s-1.74-1.15-1.35-1.46,1.62-.17,2.76.31S142.76,66.27,142.36,66.59Z"/><path class="cls-13" d="M134.35,72.68c-.45.3-1.74.09-2.88-.47s-1.72-1.26-1.28-1.56,1.72-.08,2.87.47S134.79,72.37,134.35,72.68Z"/><path class="cls-13" d="M125.72,78.25c-.49.29-1.83,0-3-.62s-1.68-1.38-1.19-1.66,1.81,0,3,.62S126.22,78,125.72,78.25Z"/><path class="cls-13" d="M116.61,83.39c-.54.29-1.91-.06-3-.76s-1.65-1.5-1.12-1.77,1.89.07,3,.76S117.15,83.11,116.61,83.39Z"/><path class="cls-13" d="M107.13,88.21c-.58.28-2-.13-3.1-.91s-1.59-1.62-1-1.89,2,.14,3.1.91S107.71,87.94,107.13,88.21Z"/><path class="cls-13" d="M97.41,92.8c-.62.28-2-.19-3.13-1s-1.53-1.77-.94-2,2,.2,3.13,1S98,92.53,97.41,92.8Z"/><path class="cls-13" d="M87.57,97.26c-.64.28-2-.25-3.13-1.19s-1.47-1.92-.85-2.19,2,.27,3.13,1.2S88.2,97,87.57,97.26Z"/><path class="cls-13" d="M77.54,101.58c-.61.26-1.9-.29-2.88-1.25s-1.3-1.93-.7-2.18,1.89.3,2.88,1.24S78.15,101.31,77.54,101.58Z"/><path class="cls-13" d="M67.66,105.94c-.57.26-1.75-.31-2.63-1.28s-1.13-2-.57-2.2,1.74.33,2.63,1.29S68.24,105.69,67.66,105.94Z"/><path class="cls-13" d="M58.06,110.46c-.53.25-1.59-.34-2.38-1.31s-1-2-.47-2.21,1.59.35,2.38,1.31S58.6,110.21,58.06,110.46Z"/><path class="cls-13" d="M48.86,115.22c-.48.25-1.44-.34-2.13-1.33s-.88-2-.4-2.23,1.43.36,2.14,1.34S49.35,115,48.86,115.22Z"/><path class="cls-13" d="M40.18,120.33c-.43.25-1.28-.35-1.89-1.35s-.77-2-.35-2.24,1.28.36,1.91,1.34S40.62,120.08,40.18,120.33Z"/><path class="cls-13" d="M32.16,125.88c-.38.26-1.13-.34-1.67-1.35s-.68-2-.31-2.28,1.12.36,1.67,1.36S32.54,125.62,32.16,125.88Z"/><path class="cls-13" d="M24.9,132c-.32.26-1-.35-1.45-1.37s-.61-2-.29-2.3,1,.36,1.45,1.37S25.23,131.71,24.9,132Z"/><path class="cls-13" d="M18.55,138.71c-.26.27-.82-.34-1.25-1.37s-.56-2.07-.3-2.33.82.35,1.26,1.37S18.82,138.44,18.55,138.71Z"/><path class="cls-13" d="M13.28,146.1c-.18.36-.66-.15-1.07-1.14a4.27,4.27,0,0,1-.44-2.44c.18-.35.66.16,1.08,1.15A4.11,4.11,0,0,1,13.28,146.1Z"/><path class="cls-13" d="M9.09,154.42c-.13.38-.54-.14-.91-1.15a5.41,5.41,0,0,1-.46-2.5c.13-.37.54.15.92,1.16A5.31,5.31,0,0,1,9.09,154.42Z"/><path class="cls-13" d="M6.17,163.68c-.08.39-.42-.13-.77-1.16A7.61,7.61,0,0,1,4.91,160c.07-.38.42.14.77,1.17A7.45,7.45,0,0,1,6.17,163.68Z"/><path class="cls-13" d="M4.64,174c0,.4-.31-.13-.63-1.18a10.73,10.73,0,0,1-.55-2.64c0-.39.31.14.63,1.19A11,11,0,0,1,4.64,174Z"/><path class="cls-13" d="M4.63,185.38c0,.42-.2-.12-.52-1.2a20.05,20.05,0,0,1-.62-2.7c0-.41.21.13.52,1.21A18,18,0,0,1,4.63,185.38Z"/><path class="cls-14" d="M162,.8c0,.4-.66.68-1.48.64s-1.48-.4-1.49-.8.66-.68,1.48-.64S162,.4,162,.8Z"/><path class="cls-14" d="M161.56,12.64c-.05.38-.8.6-1.69.5s-1.57-.5-1.52-.88.79-.6,1.68-.5S161.6,12.25,161.56,12.64Z"/><path class="cls-14" d="M159.71,23.33c-.1.37-.94.53-1.89.36s-1.64-.6-1.54-1,.93-.52,1.88-.36S159.8,23,159.71,23.33Z"/><path class="cls-14" d="M156.59,33c-.15.35-1.08.45-2.08.22s-1.69-.7-1.54-1,1.07-.45,2.07-.22S156.74,32.62,156.59,33Z"/><path class="cls-14" d="M152.32,41.66c-.2.33-1.22.36-2.26.06s-1.73-.8-1.53-1.12,1.2-.36,2.25-.07S152.51,41.32,152.32,41.66Z"/><path class="cls-14" d="M147,49.47c-.25.31-1.33.27-2.42-.09s-1.75-.9-1.51-1.21,1.33-.27,2.42.09S147.25,49.15,147,49.47Z"/><path class="cls-14" d="M140.76,56.5c-.3.3-1.45.19-2.56-.23s-1.77-1-1.47-1.3,1.44-.19,2.56.23S141.07,56.21,140.76,56.5Z"/><path class="cls-14" d="M133.72,62.85c-.35.28-1.56.11-2.69-.39s-1.77-1.11-1.42-1.38,1.54-.11,2.68.38S134.07,62.57,133.72,62.85Z"/><path class="cls-14" d="M126,68.61c-.4.26-1.65,0-2.79-.54s-1.76-1.23-1.37-1.49,1.64,0,2.79.54S126.38,68.34,126,68.61Z"/><path class="cls-14" d="M117.67,73.86c-.44.25-1.74-.06-2.88-.69s-1.73-1.34-1.3-1.59,1.72.06,2.88.68S118.11,73.6,117.67,73.86Z"/><path class="cls-14" d="M108.89,78.7c-.48.24-1.8-.13-2.94-.84s-1.69-1.46-1.22-1.7,1.78.13,2.94.83S109.37,78.45,108.89,78.7Z"/><path class="cls-14" d="M99.78,83.22c-.52.24-1.86-.2-3-1s-1.64-1.6-1.14-1.83,1.84.21,3,1S100.29,83,99.78,83.22Z"/><path class="cls-14" d="M90.43,87.51c-.54.24-1.89-.26-3-1.12s-1.59-1.74-1.06-2,1.88.27,3,1.11S91,87.27,90.43,87.51Z"/><path class="cls-14" d="M81,91.67c-.57.24-1.91-.32-3-1.26s-1.53-1.89-1-2.12,1.9.34,3,1.26S81.55,91.43,81,91.67Z"/><path class="cls-14" d="M71.36,95.68c-.54.23-1.78-.35-2.77-1.31s-1.37-1.9-.84-2.13,1.77.37,2.78,1.31S71.9,95.45,71.36,95.68Z"/><path class="cls-14" d="M61.89,99.73c-.52.23-1.65-.37-2.55-1.34s-1.21-1.93-.71-2.15,1.64.38,2.54,1.34S62.4,99.5,61.89,99.73Z"/><path class="cls-14" d="M52.68,103.91c-.48.23-1.51-.38-2.32-1.36s-1.08-2-.61-2.18,1.5.39,2.31,1.37S53.15,103.68,52.68,103.91Z"/><path class="cls-14" d="M43.85,108.32c-.43.24-1.37-.38-2.09-1.37s-1-2-.53-2.21,1.36.39,2.09,1.37S44.28,108.09,43.85,108.32Z"/><path class="cls-14" d="M35.52,113.05c-.38.24-1.22-.38-1.86-1.38s-.86-2-.48-2.25,1.22.39,1.87,1.38S35.91,112.8,35.52,113.05Z"/><path class="cls-14" d="M27.82,118.19c-.34.25-1.08-.37-1.65-1.38s-.78-2-.44-2.29,1.08.37,1.66,1.38S28.16,117.93,27.82,118.19Z"/><path class="cls-14" d="M20.85,123.83c-.29.27-.94-.35-1.45-1.38s-.7-2.07-.42-2.33.94.36,1.46,1.38S21.14,123.56,20.85,123.83Z"/><path class="cls-14" d="M14.74,130.07c-.24.28-.8-.33-1.26-1.37s-.65-2.11-.41-2.38.8.34,1.26,1.37S15,129.79,14.74,130.07Z"/><path class="cls-14" d="M9.61,137c-.19.3-.67-.31-1.09-1.36a4.24,4.24,0,0,1-.43-2.43c.18-.29.67.32,1.09,1.36A4.21,4.21,0,0,1,9.61,137Z"/><path class="cls-14" d="M5.56,144.71c-.13.31-.54-.29-.92-1.35a5.54,5.54,0,0,1-.46-2.48c.13-.31.55.3.93,1.35A5.47,5.47,0,0,1,5.56,144.71Z"/><path class="cls-14" d="M2.72,153.29c-.07.33-.42-.27-.77-1.34a7.58,7.58,0,0,1-.5-2.52c.08-.32.43.28.78,1.34A7.41,7.41,0,0,1,2.72,153.29Z"/><path class="cls-14" d="M1.21,162.83c0,.35-.31-.24-.64-1.32A11,11,0,0,1,0,159c0-.34.32.26.64,1.33A10.81,10.81,0,0,1,1.21,162.83Z"/><path class="cls-14" d="M1.14,173.44c0,.36-.21-.23-.53-1.31A19.57,19.57,0,0,1,0,169.54c0-.35.22.23.53,1.3A17.5,17.5,0,0,1,1.14,173.44Z"/></g></g></svg>