<svg width="659" height="900" viewBox="0 0 659 900" fill="none" xmlns="http://www.w3.org/2000/svg">
<g filter="url(#filter0_b)">
<path fill-rule="evenodd" clip-rule="evenodd" d="M184.507 1018L202.507 968C220.507 918 256.507 818 262.507 718C268.507 618 244.507 518 208.507 418C172.507 318 124.507 218 106.507 118C88.5068 18 100.507 -82 106.507 -132L112.507 -182L734.513 -182L734.513 -132C734.513 -82 734.513 18 734.513 118C734.513 218 734.513 318 734.513 418C734.513 518 734.513 618 734.513 718C734.513 818 734.513 918 734.513 968L734.513 1018L184.507 1018Z" fill="white"/>
<path fill-rule="evenodd" clip-rule="evenodd" d="M184.507 1018L202.507 968C220.507 918 256.507 818 262.507 718C268.507 618 244.507 518 208.507 418C172.507 318 124.507 218 106.507 118C88.5068 18 100.507 -82 106.507 -132L112.507 -182L734.513 -182L734.513 -132C734.513 -82 734.513 18 734.513 118C734.513 218 734.513 318 734.513 418C734.513 518 734.513 618 734.513 718C734.513 818 734.513 918 734.513 968L734.513 1018L184.507 1018Z" fill="#393A4F"/>
<path fill-rule="evenodd" clip-rule="evenodd" d="M184.507 1018L202.507 968C220.507 918 256.507 818 262.507 718C268.507 618 244.507 518 208.507 418C172.507 318 124.507 218 106.507 118C88.5068 18 100.507 -82 106.507 -132L112.507 -182L734.513 -182L734.513 -132C734.513 -82 734.513 18 734.513 118C734.513 218 734.513 318 734.513 418C734.513 518 734.513 618 734.513 718C734.513 818 734.513 918 734.513 968L734.513 1018L184.507 1018Z" fill="url(#paint0_linear)" fill-opacity="0.2"/>
</g>
<g opacity="0.1">
<path fill-rule="evenodd" clip-rule="evenodd" d="M149.507 1014L167.507 964C185.507 914 221.507 814 227.507 714C233.507 614 209.507 514 173.507 414C137.507 314 89.5068 214 71.5068 114C53.5068 14 65.5068 -86 71.5068 -136L77.5068 -186L699.513 -186L699.513 -136C699.513 -86 699.513 14 699.513 114C699.513 214 699.513 314 699.513 414C699.513 514 699.513 614 699.513 714C699.513 814 699.513 914 699.513 964L699.513 1014L149.507 1014Z" fill="white"/>
<path fill-rule="evenodd" clip-rule="evenodd" d="M149.507 1014L167.507 964C185.507 914 221.507 814 227.507 714C233.507 614 209.507 514 173.507 414C137.507 314 89.5068 214 71.5068 114C53.5068 14 65.5068 -86 71.5068 -136L77.5068 -186L699.513 -186L699.513 -136C699.513 -86 699.513 14 699.513 114C699.513 214 699.513 314 699.513 414C699.513 514 699.513 614 699.513 714C699.513 814 699.513 914 699.513 964L699.513 1014L149.507 1014Z" fill="#393A4F"/>
<path fill-rule="evenodd" clip-rule="evenodd" d="M149.507 1014L167.507 964C185.507 914 221.507 814 227.507 714C233.507 614 209.507 514 173.507 414C137.507 314 89.5068 214 71.5068 114C53.5068 14 65.5068 -86 71.5068 -136L77.5068 -186L699.513 -186L699.513 -136C699.513 -86 699.513 14 699.513 114C699.513 214 699.513 314 699.513 414C699.513 514 699.513 614 699.513 714C699.513 814 699.513 914 699.513 964L699.513 1014L149.507 1014Z" fill="url(#paint1_linear)" fill-opacity="0.2"/>
</g>
<g opacity="0.1">
<path fill-rule="evenodd" clip-rule="evenodd" d="M116.507 1014L134.507 964C152.507 914 188.507 814 194.507 714C200.507 614 176.507 514 140.507 414C104.507 314 56.5068 214 38.5068 114C20.5068 14 32.5068 -86 38.5068 -136L44.5068 -186L666.513 -186L666.513 -136C666.513 -86 666.513 14 666.513 114C666.513 214 666.513 314 666.513 414C666.513 514 666.513 614 666.513 714C666.513 814 666.513 914 666.513 964L666.513 1014L116.507 1014Z" fill="white"/>
<path fill-rule="evenodd" clip-rule="evenodd" d="M116.507 1014L134.507 964C152.507 914 188.507 814 194.507 714C200.507 614 176.507 514 140.507 414C104.507 314 56.5068 214 38.5068 114C20.5068 14 32.5068 -86 38.5068 -136L44.5068 -186L666.513 -186L666.513 -136C666.513 -86 666.513 14 666.513 114C666.513 214 666.513 314 666.513 414C666.513 514 666.513 614 666.513 714C666.513 814 666.513 914 666.513 964L666.513 1014L116.507 1014Z" fill="#393A4F"/>
<path fill-rule="evenodd" clip-rule="evenodd" d="M116.507 1014L134.507 964C152.507 914 188.507 814 194.507 714C200.507 614 176.507 514 140.507 414C104.507 314 56.5068 214 38.5068 114C20.5068 14 32.5068 -86 38.5068 -136L44.5068 -186L666.513 -186L666.513 -136C666.513 -86 666.513 14 666.513 114C666.513 214 666.513 314 666.513 414C666.513 514 666.513 614 666.513 714C666.513 814 666.513 914 666.513 964L666.513 1014L116.507 1014Z" fill="url(#paint2_linear)" fill-opacity="0.2"/>
</g>
<g opacity="0.1">
<path fill-rule="evenodd" clip-rule="evenodd" d="M87.5068 1014L105.507 964C123.507 914 159.507 814 165.507 714C171.507 614 147.507 514 111.507 414C75.5068 314 27.5068 214 9.50679 114C-8.49321 14 3.50678 -86 9.50678 -136L15.5068 -186L637.513 -186L637.513 -136C637.513 -86 637.513 14 637.513 114C637.513 214 637.513 314 637.513 414C637.513 514 637.513 614 637.513 714C637.513 814 637.513 914 637.513 964L637.513 1014L87.5068 1014Z" fill="white"/>
<path fill-rule="evenodd" clip-rule="evenodd" d="M87.5068 1014L105.507 964C123.507 914 159.507 814 165.507 714C171.507 614 147.507 514 111.507 414C75.5068 314 27.5068 214 9.50679 114C-8.49321 14 3.50678 -86 9.50678 -136L15.5068 -186L637.513 -186L637.513 -136C637.513 -86 637.513 14 637.513 114C637.513 214 637.513 314 637.513 414C637.513 514 637.513 614 637.513 714C637.513 814 637.513 914 637.513 964L637.513 1014L87.5068 1014Z" fill="#393A4F"/>
<path fill-rule="evenodd" clip-rule="evenodd" d="M87.5068 1014L105.507 964C123.507 914 159.507 814 165.507 714C171.507 614 147.507 514 111.507 414C75.5068 314 27.5068 214 9.50679 114C-8.49321 14 3.50678 -86 9.50678 -136L15.5068 -186L637.513 -186L637.513 -136C637.513 -86 637.513 14 637.513 114C637.513 214 637.513 314 637.513 414C637.513 514 637.513 614 637.513 714C637.513 814 637.513 914 637.513 964L637.513 1014L87.5068 1014Z" fill="url(#paint3_linear)" fill-opacity="0.2"/>
</g>
<defs>
<filter id="filter0_b" x="-2.99998" y="-282" width="837.513" height="1400" filterUnits="userSpaceOnUse" color-interpolation-filters="sRGB">
<feFlood flood-opacity="0" result="BackgroundImageFix"/>
<feGaussianBlur in="BackgroundImage" stdDeviation="50"/>
<feComposite in2="SourceAlpha" operator="in" result="effect1_backgroundBlur"/>
<feBlend mode="normal" in="SourceGraphic" in2="effect1_backgroundBlur" result="shape"/>
</filter>
<linearGradient id="paint0_linear" x1="97" y1="418" x2="734.513" y2="418" gradientUnits="userSpaceOnUse">
<stop stop-color="#FF4ECD"/>
<stop offset="1" stop-color="white" stop-opacity="0"/>
</linearGradient>
<linearGradient id="paint1_linear" x1="62" y1="414" x2="699.513" y2="414" gradientUnits="userSpaceOnUse">
<stop stop-color="#FF4ECD"/>
<stop offset="1" stop-color="white" stop-opacity="0"/>
</linearGradient>
<linearGradient id="paint2_linear" x1="29" y1="414" x2="666.513" y2="414" gradientUnits="userSpaceOnUse">
<stop stop-color="#FF4ECD"/>
<stop offset="1" stop-color="white" stop-opacity="0"/>
</linearGradient>
<linearGradient id="paint3_linear" x1="2.71789e-05" y1="414" x2="637.513" y2="414" gradientUnits="userSpaceOnUse">
<stop stop-color="#FF4ECD"/>
<stop offset="1" stop-color="white" stop-opacity="0"/>
</linearGradient>
</defs>
</svg>
