<svg width="50" height="50" viewBox="0 0 50 50" fill="none" xmlns="http://www.w3.org/2000/svg">
<path d="M0 5C0 2.23858 2.23858 0 5 0H45C47.7614 0 50 2.23858 50 5V45C50 47.7614 47.7614 50 45 50H5C2.23858 50 0 47.7614 0 45V5Z" fill="#E8FFFB"/>
<path d="M24.9995 33.5C29.6939 33.5 33.4995 29.6944 33.4995 25C33.4995 20.3056 29.6939 16.5 24.9995 16.5C20.3051 16.5 16.4995 20.3056 16.4995 25C16.4995 29.6944 20.3051 33.5 24.9995 33.5Z" stroke="#8A7A98" stroke-width="2" stroke-linecap="round" stroke-linejoin="round"/>
<path d="M28.6035 21.3962L26.8015 26.8022L21.3955 28.6042L23.1975 23.1982L28.6035 21.3962Z" stroke="#8A7A98" stroke-width="2" stroke-linecap="round" stroke-linejoin="round"/>
</svg>
