<svg width="35" height="35" viewBox="0 0 35 35" fill="none" xmlns="http://www.w3.org/2000/svg">
<rect width="35" height="35" rx="5" fill="#32BFAE"/>
<path d="M19.4733 11.7462C20.3524 12.2974 20.9688 13.2301 21.0811 14.3128C21.4396 14.4803 21.8375 14.5766 22.2594 14.5766C23.7995 14.5766 25.0478 13.3283 25.0478 11.7884C25.0478 10.2483 23.7995 9 22.2594 9C20.7339 9.00047 19.4966 10.2265 19.4733 11.7462ZM17.6466 17.4554C19.1867 17.4554 20.435 16.2069 20.435 14.667C20.435 13.1271 19.1865 11.8788 17.6466 11.8788C16.1067 11.8788 14.8577 13.1274 14.8577 14.6673C14.8577 16.2072 16.1067 17.4554 17.6466 17.4554ZM18.8294 17.6455H16.4633C14.4946 17.6455 12.893 19.2473 12.893 21.216V24.1095L12.9004 24.1548L13.0997 24.2172C14.9784 24.8043 16.6106 25 17.9541 25C20.5781 25 22.099 24.2519 22.1927 24.2042L22.379 24.11H22.3989V21.216C22.3996 19.2473 20.798 17.6455 18.8294 17.6455ZM23.4426 14.7669H21.0948C21.0694 15.7063 20.6685 16.5521 20.0342 17.1605C21.7841 17.6809 23.0644 19.3036 23.0644 21.2202V22.1119C25.3826 22.027 26.7184 21.37 26.8065 21.3258L26.9927 21.2314H27.0126V18.3369C27.0126 16.3685 25.4111 14.7669 23.4426 14.7669ZM12.7538 14.5771C13.2992 14.5771 13.8068 14.4179 14.2367 14.1467C14.3734 13.2552 14.8512 12.4763 15.5339 11.9457C15.5367 11.8935 15.5417 11.8418 15.5417 11.7891C15.5417 10.249 14.2932 9.00071 12.7538 9.00071C11.2134 9.00071 9.96533 10.249 9.96533 11.7891C9.96533 13.3286 11.2134 14.5771 12.7538 14.5771ZM15.2579 17.1605C14.6268 16.5552 14.2272 15.7139 14.198 14.7802C14.111 14.7738 14.0248 14.7669 13.9361 14.7669H11.5702C9.60159 14.7669 8 16.3685 8 18.3369V21.2309L8.00736 21.2755L8.20666 21.3384C9.71382 21.8089 11.0589 22.0258 12.2272 22.0941V21.2202C12.2277 19.3036 13.5076 17.6813 15.2579 17.1605Z" fill="white"/>
</svg>
