<svg width="20" height="16" viewBox="0 0 20 16" fill="none" xmlns="http://www.w3.org/2000/svg">
<path d="M1.90968 4.81745C2.1613 4.99501 2.91979 5.52236 4.18518 6.39924C5.45062 7.27612 6.42002 7.95129 7.09345 8.42479C7.16743 8.4767 7.32462 8.58952 7.56509 8.76343C7.80559 8.93745 8.00543 9.07808 8.16444 9.18534C8.32357 9.29257 8.51595 9.41286 8.74176 9.54602C8.96749 9.67907 9.18027 9.77914 9.38007 9.84539C9.57991 9.91219 9.7649 9.94527 9.93507 9.94527H9.94623H9.95742C10.1276 9.94527 10.3127 9.91215 10.5125 9.84539C10.7122 9.77914 10.9252 9.67895 11.1507 9.54602C11.3764 9.41271 11.5688 9.29253 11.7279 9.18534C11.887 9.07808 12.0867 8.93745 12.3273 8.76343C12.5677 8.58937 12.7251 8.4767 12.7991 8.42479C13.4798 7.95129 15.2116 6.74872 17.9939 4.81722C18.5341 4.43998 18.9854 3.98478 19.3479 3.45194C19.7107 2.91934 19.892 2.36061 19.892 1.77607C19.892 1.28759 19.7161 0.86945 19.3646 0.521678C19.0131 0.173828 18.5968 0 18.1159 0H1.77644C1.20667 0 0.768192 0.192373 0.461087 0.577119C0.154021 0.961943 0.000488281 1.44295 0.000488281 2.02011C0.000488281 2.48631 0.204058 2.9915 0.611004 3.53538C1.01791 4.0793 1.45094 4.50669 1.90968 4.81745Z" fill="#CACACA"/>
<path d="M18.7813 6.0051C16.3543 7.64778 14.5115 8.92441 13.2536 9.83472C12.8318 10.1454 12.4897 10.3879 12.2269 10.5617C11.9641 10.7356 11.6146 10.9132 11.1779 11.0944C10.7414 11.2759 10.3346 11.3664 9.95709 11.3664H9.94578H9.93462C9.55722 11.3664 9.15016 11.2759 8.71362 11.0944C8.27709 10.9132 7.92738 10.7356 7.66467 10.5617C7.40204 10.3879 7.05975 10.1454 6.638 9.83472C5.63892 9.10216 3.80003 7.82545 1.12123 6.0051C0.699315 5.72409 0.325611 5.40197 0 5.03943V13.8527C0 14.3414 0.173828 14.7593 0.521678 15.1071C0.86945 15.4551 1.28763 15.629 1.77607 15.629H18.1156C18.6039 15.629 19.022 15.4551 19.3698 15.1071C19.7178 14.7592 19.8915 14.3414 19.8915 13.8527V5.03943C19.5733 5.39447 19.2034 5.71658 18.7813 6.0051Z" fill="#CACACA"/>
</svg>
