<svg width="420" height="120" viewBox="0 0 420 120" fill="none" xmlns="http://www.w3.org/2000/svg">
<g filter="url(#filter0_d)">
<rect x="10" y="10" width="400" height="100" rx="10" fill="white"/>
</g>
<path d="M20 11.5H108.5V108.5H20C15.3056 108.5 11.5 104.694 11.5 100V20C11.5 15.3056 15.3056 11.5 20 11.5Z" fill="#E8FFFB" stroke="white" stroke-width="3"/>
<path d="M68.0222 50.3778H51.3778C50.0646 50.3778 49 51.4424 49 52.7556V69.4C49 70.7132 50.0646 71.7778 51.3778 71.7778H68.0222C69.3354 71.7778 70.4 70.7132 70.4 69.4V52.7556C70.4 51.4424 69.3354 50.3778 68.0222 50.3778Z" stroke="#8A7A98" stroke-width="3" stroke-linecap="round" stroke-linejoin="round"/>
<path d="M64.4556 48V52.7556" stroke="#8A7A98" stroke-width="3" stroke-linecap="round" stroke-linejoin="round"/>
<path d="M54.9443 48V52.7556" stroke="#8A7A98" stroke-width="3" stroke-linecap="round" stroke-linejoin="round"/>
<path d="M49 57.5111H70.4" stroke="#8A7A98" stroke-width="3" stroke-linecap="round" stroke-linejoin="round"/>
<path d="M139.12 67.18C141.604 67.18 143.782 65.47 143.782 62.644V54.598H141.586V62.536C141.586 64.318 140.416 65.092 139.12 65.092C137.806 65.092 136.636 64.318 136.636 62.536V54.598H134.44V62.644C134.44 65.47 136.618 67.18 139.12 67.18ZM151.196 58.414C150.188 58.414 148.982 58.828 148.406 59.71V58.594H146.318V71.104H148.406V65.866C148.982 66.766 150.152 67.162 151.214 67.162C153.428 67.162 155.336 65.488 155.336 62.788C155.336 60.106 153.41 58.414 151.196 58.414ZM150.872 65.218C149.666 65.218 148.442 64.282 148.442 62.806C148.442 61.33 149.594 60.358 150.872 60.358C152.168 60.358 153.248 61.402 153.248 62.806C153.248 64.21 152.168 65.218 150.872 65.218ZM161.372 67.162C162.83 67.162 164.018 66.514 164.792 65.542L163.298 64.372C162.866 64.894 162.146 65.218 161.408 65.218C159.95 65.218 158.906 64.192 158.906 62.788C158.906 61.366 159.95 60.358 161.408 60.358C162.146 60.358 162.866 60.682 163.298 61.204L164.792 60.034C164.018 59.044 162.83 58.414 161.372 58.414C158.942 58.414 156.8 60.124 156.8 62.788C156.8 65.452 158.942 67.162 161.372 67.162ZM170.352 67.18C172.746 67.18 174.834 65.434 174.834 62.77C174.834 60.106 172.746 58.414 170.352 58.414C167.958 58.414 165.888 60.106 165.888 62.77C165.888 65.434 167.958 67.18 170.352 67.18ZM170.352 65.236C169.056 65.236 167.994 64.246 167.994 62.77C167.994 61.33 169.056 60.358 170.352 60.358C171.648 60.358 172.728 61.33 172.728 62.77C172.728 64.246 171.648 65.236 170.352 65.236ZM186.933 58.414C186.087 58.414 184.773 58.738 184.107 60.07C183.621 58.99 182.613 58.414 181.389 58.414C180.345 58.414 179.193 58.972 178.887 60.034V58.594H176.799V67H178.887V62.572C178.887 60.97 179.859 60.43 180.831 60.43C181.731 60.43 182.433 61.096 182.433 62.446V67H184.521V62.77L184.539 62.842C184.449 61.33 185.205 60.43 186.411 60.43C187.383 60.43 188.085 61.096 188.085 62.446V67H190.155V62.284C190.155 59.836 189.039 58.414 186.933 58.414ZM193.593 56.902C194.349 56.902 194.943 56.344 194.943 55.624C194.943 54.886 194.349 54.346 193.593 54.346C192.855 54.346 192.225 54.886 192.225 55.624C192.225 56.344 192.855 56.902 193.593 56.902ZM192.549 67H194.637V58.594H192.549V67ZM201.817 58.414C200.953 58.414 199.639 58.882 199.207 59.926V58.594H197.119V67H199.207V62.608C199.207 60.988 200.395 60.466 201.349 60.466C202.285 60.466 203.095 61.15 203.095 62.482V67H205.183V62.284C205.183 59.836 203.977 58.414 201.817 58.414ZM213.986 58.594V59.692C213.392 58.828 212.258 58.414 211.178 58.414C208.964 58.414 207.056 60.088 207.056 62.788C207.056 65.47 208.982 67.18 211.196 67.18C212.222 67.18 213.392 66.748 213.986 65.884V66.01C213.986 68.404 212.978 69.34 211.358 69.34C210.44 69.34 209.522 68.8 209.108 67.972L207.38 68.764C208.118 70.294 209.63 71.23 211.358 71.23C214.238 71.23 216.074 69.592 216.074 65.812V58.594H213.986ZM211.52 65.218C210.224 65.218 209.162 64.174 209.162 62.77C209.162 61.366 210.224 60.358 211.52 60.358C212.726 60.358 213.95 61.294 213.95 62.77C213.95 64.246 212.798 65.218 211.52 65.218ZM229.673 67H232.265L229.025 62.41C231.185 62.014 232.103 60.34 232.103 58.576C232.103 56.596 230.933 54.598 228.161 54.598H223.301V67H225.497V62.482H226.613L229.673 67ZM225.497 56.56H227.999C229.205 56.56 229.907 57.478 229.907 58.612C229.907 59.746 229.259 60.628 227.711 60.628H225.497V56.56ZM242.082 62.716C242.082 60.088 240.192 58.414 237.78 58.414C235.386 58.414 233.37 60.106 233.37 62.788C233.37 65.416 235.278 67.18 237.798 67.18C239.328 67.18 240.804 66.532 241.578 65.308L240.192 64.246C239.688 64.93 238.824 65.29 237.906 65.29C236.664 65.29 235.764 64.696 235.53 63.526H242.028C242.064 63.22 242.082 62.95 242.082 62.716ZM235.53 62.068C235.782 60.79 236.682 60.25 237.816 60.25C238.986 60.25 239.868 60.916 239.994 62.068H235.53ZM243.982 67H246.07V54.094H243.982V67ZM256.743 62.716C256.743 60.088 254.853 58.414 252.441 58.414C250.047 58.414 248.031 60.106 248.031 62.788C248.031 65.416 249.939 67.18 252.459 67.18C253.989 67.18 255.465 66.532 256.239 65.308L254.853 64.246C254.349 64.93 253.485 65.29 252.567 65.29C251.325 65.29 250.425 64.696 250.191 63.526H256.689C256.725 63.22 256.743 62.95 256.743 62.716ZM250.191 62.068C250.443 60.79 251.343 60.25 252.477 60.25C253.647 60.25 254.529 60.916 254.655 62.068H250.191ZM265.068 58.594V59.71C264.492 58.828 263.322 58.414 262.26 58.414C260.046 58.414 258.138 60.088 258.138 62.788C258.138 65.47 260.064 67.18 262.278 67.18C263.304 67.18 264.492 66.766 265.068 65.866V67H267.156V58.594H265.068ZM262.602 65.218C261.306 65.218 260.244 64.174 260.244 62.77C260.244 61.366 261.306 60.358 262.602 60.358C263.808 60.358 265.032 61.294 265.032 62.77C265.032 64.246 263.88 65.218 262.602 65.218ZM272.454 67.18C274.164 67.18 275.874 66.28 275.874 64.57C275.874 63.796 275.532 62.608 273.642 62.122L272.292 61.762C271.806 61.654 271.392 61.402 271.392 60.97C271.392 60.448 271.842 60.088 272.49 60.088C273.084 60.088 273.606 60.448 273.606 61.042H275.604C275.622 59.152 273.93 58.414 272.436 58.414C270.6 58.414 269.304 59.566 269.304 60.88C269.304 61.942 269.79 62.95 271.68 63.454L272.796 63.742C273.426 63.886 273.786 64.102 273.786 64.57C273.786 65.11 273.246 65.488 272.418 65.488C271.536 65.488 271.032 64.948 271.032 64.372H269.07C269.106 66.172 270.78 67.18 272.454 67.18ZM286.01 62.716C286.01 60.088 284.12 58.414 281.708 58.414C279.314 58.414 277.298 60.106 277.298 62.788C277.298 65.416 279.206 67.18 281.726 67.18C283.256 67.18 284.732 66.532 285.506 65.308L284.12 64.246C283.616 64.93 282.752 65.29 281.834 65.29C280.592 65.29 279.692 64.696 279.458 63.526H285.956C285.992 63.22 286.01 62.95 286.01 62.716ZM279.458 62.068C279.71 60.79 280.61 60.25 281.744 60.25C282.914 60.25 283.796 60.916 283.922 62.068H279.458ZM290.718 67.18C292.428 67.18 294.138 66.28 294.138 64.57C294.138 63.796 293.796 62.608 291.906 62.122L290.556 61.762C290.07 61.654 289.656 61.402 289.656 60.97C289.656 60.448 290.106 60.088 290.754 60.088C291.348 60.088 291.87 60.448 291.87 61.042H293.868C293.886 59.152 292.194 58.414 290.7 58.414C288.864 58.414 287.568 59.566 287.568 60.88C287.568 61.942 288.054 62.95 289.944 63.454L291.06 63.742C291.69 63.886 292.05 64.102 292.05 64.57C292.05 65.11 291.51 65.488 290.682 65.488C289.8 65.488 289.296 64.948 289.296 64.372H287.334C287.37 66.172 289.044 67.18 290.718 67.18ZM306.328 67.162C308.362 67.162 310.144 66.226 311.26 64.75L309.604 63.508C308.848 64.48 307.732 65.11 306.382 65.11C303.988 65.11 302.242 63.184 302.242 60.808C302.242 58.432 304.024 56.506 306.382 56.506C307.732 56.506 308.848 57.136 309.604 58.126L311.26 56.866C310.144 55.408 308.362 54.454 306.328 54.454C302.836 54.454 300.028 57.298 300.028 60.808C300.028 64.318 302.836 67.162 306.328 67.162ZM319.35 58.594V59.71C318.774 58.828 317.604 58.414 316.542 58.414C314.328 58.414 312.42 60.088 312.42 62.788C312.42 65.47 314.346 67.18 316.56 67.18C317.586 67.18 318.774 66.766 319.35 65.866V67H321.438V58.594H319.35ZM316.884 65.218C315.588 65.218 314.526 64.174 314.526 62.77C314.526 61.366 315.588 60.358 316.884 60.358C318.09 60.358 319.314 61.294 319.314 62.77C319.314 64.246 318.162 65.218 316.884 65.218ZM323.928 67H326.016V54.094H323.928V67ZM336.688 62.716C336.688 60.088 334.798 58.414 332.386 58.414C329.992 58.414 327.976 60.106 327.976 62.788C327.976 65.416 329.884 67.18 332.404 67.18C333.934 67.18 335.41 66.532 336.184 65.308L334.798 64.246C334.294 64.93 333.43 65.29 332.512 65.29C331.27 65.29 330.37 64.696 330.136 63.526H336.634C336.67 63.22 336.688 62.95 336.688 62.716ZM330.136 62.068C330.388 60.79 331.288 60.25 332.422 60.25C333.592 60.25 334.474 60.916 334.6 62.068H330.136ZM343.286 58.414C342.422 58.414 341.108 58.882 340.676 59.926V58.594H338.588V67H340.676V62.608C340.676 60.988 341.864 60.466 342.818 60.466C343.754 60.466 344.564 61.15 344.564 62.482V67H346.652V62.284C346.652 59.836 345.446 58.414 343.286 58.414ZM355.455 54.094V59.71C354.879 58.828 353.709 58.414 352.647 58.414C350.433 58.414 348.525 60.088 348.525 62.788C348.525 65.47 350.451 67.18 352.665 67.18C353.691 67.18 354.879 66.766 355.455 65.866V67H357.543V54.094H355.455ZM352.989 65.218C351.693 65.218 350.631 64.174 350.631 62.77C350.631 61.366 351.693 60.358 352.989 60.358C354.195 60.358 355.419 61.294 355.419 62.77C355.419 64.246 354.267 65.218 352.989 65.218ZM366.459 58.594V59.71C365.883 58.828 364.713 58.414 363.651 58.414C361.437 58.414 359.529 60.088 359.529 62.788C359.529 65.47 361.455 67.18 363.669 67.18C364.695 67.18 365.883 66.766 366.459 65.866V67H368.547V58.594H366.459ZM363.993 65.218C362.697 65.218 361.635 64.174 361.635 62.77C361.635 61.366 362.697 60.358 363.993 60.358C365.199 60.358 366.423 61.294 366.423 62.77C366.423 64.246 365.271 65.218 363.993 65.218ZM375.537 58.414C374.493 58.414 373.575 58.99 373.125 60.394V58.594H371.037V67H373.143V64.066C373.143 61.708 373.899 60.376 375.267 60.376C375.573 60.376 376.005 60.43 376.491 60.682L376.905 58.702C376.581 58.522 376.041 58.414 375.537 58.414Z" fill="black" fill-opacity="0.32"/>
<defs>
<filter id="filter0_d" x="0" y="0" width="420" height="120" filterUnits="userSpaceOnUse" color-interpolation-filters="sRGB">
<feFlood flood-opacity="0" result="BackgroundImageFix"/>
<feColorMatrix in="SourceAlpha" type="matrix" values="0 0 0 0 0 0 0 0 0 0 0 0 0 0 0 0 0 0 127 0"/>
<feOffset/>
<feGaussianBlur stdDeviation="5"/>
<feColorMatrix type="matrix" values="0 0 0 0 0.754167 0 0 0 0 0.754167 0 0 0 0 0.754167 0 0 0 0.25 0"/>
<feBlend mode="normal" in2="BackgroundImageFix" result="effect1_dropShadow"/>
<feBlend mode="normal" in="SourceGraphic" in2="effect1_dropShadow" result="shape"/>
</filter>
</defs>
</svg>
