<svg width="35" height="35" viewBox="0 0 35 35" fill="none" xmlns="http://www.w3.org/2000/svg">
<rect width="35" height="35" rx="5" fill="#A4C5FD"/>
<path fill-rule="evenodd" clip-rule="evenodd" d="M18 27.75C23.3848 27.75 27.75 23.3848 27.75 18C27.75 12.6152 23.3848 8.25 18 8.25C12.6152 8.25 8.25 12.6152 8.25 18C8.25 23.3848 12.6152 27.75 18 27.75ZM17.35 11.0667C17.35 10.7077 17.641 10.4167 18 10.4167C18.359 10.4167 18.65 10.7077 18.65 11.0667V17.35H22.7667C23.1257 17.35 23.4167 17.641 23.4167 18C23.4167 18.359 23.1257 18.65 22.7667 18.65H17.8917C17.5926 18.65 17.35 18.4074 17.35 18.1083V17.4583V17.35V11.0667Z" fill="white"/>
</svg>
