<svg width="35" height="35" viewBox="0 0 35 35" fill="none" xmlns="http://www.w3.org/2000/svg">
<rect width="35" height="35" rx="5" fill="#D199C4"/>
<path fill-rule="evenodd" clip-rule="evenodd" d="M13.7498 8.24996C13.7498 7.65166 14.2349 7.16663 14.8332 7.16663H19.1665C19.7648 7.16663 20.2498 7.65166 20.2498 8.24996C20.2498 8.84826 19.7648 9.33329 19.1665 9.33329H18.6248V10.5596C20.0129 10.8067 21.2934 11.3649 22.3916 12.1594L23.8284 10.7227C24.04 10.5111 24.3829 10.5111 24.5944 10.7227L25.3605 11.4887C25.572 11.7002 25.572 12.0432 25.3605 12.2547L23.9876 13.6276C25.3717 15.2389 26.2082 17.3343 26.2082 19.625C26.2082 24.7106 22.0854 28.8333 16.9998 28.8333C11.9142 28.8333 7.7915 24.7106 7.7915 19.625C7.7915 17.3343 8.62796 15.2389 10.0121 13.6276L8.64035 12.2559C8.42882 12.0443 8.42882 11.7014 8.64035 11.4898L9.40639 10.7238C9.61792 10.5123 9.96088 10.5123 10.1724 10.7238L11.608 12.1594C12.7063 11.3649 13.9867 10.8067 15.3748 10.5596V9.33329H14.8332C14.2349 9.33329 13.7498 8.84826 13.7498 8.24996ZM12.9478 17.6261C12.6728 17.3954 12.6369 16.9854 12.8676 16.7104C13.0984 16.4354 13.5084 16.3996 13.7834 16.6303L16.9396 19.2786L20.9581 14.4896C21.1889 14.2146 21.5989 14.1787 21.8739 14.4094C22.1489 14.6402 22.1848 15.0502 21.954 15.3252L17.4974 20.6365L17.4947 20.6342L17.0971 21.1079L12.9478 17.6261Z" fill="white"/>
</svg>
