<svg width="420" height="120" viewBox="0 0 420 120" fill="none" xmlns="http://www.w3.org/2000/svg">
<g filter="url(#filter0_d)">
<rect x="10" y="10" width="400" height="100" rx="10" fill="white"/>
</g>
<path d="M20 11.5H108.5V108.5H20C15.3056 108.5 11.5 104.694 11.5 100V20C11.5 15.3056 15.3056 11.5 20 11.5Z" fill="#E8FFFB" stroke="white" stroke-width="3"/>
<path d="M142.162 54.598L138.868 59.422L135.61 54.598H133.018L137.77 61.348V67H139.984V61.366L144.772 54.598H142.162ZM152.03 62.716C152.03 60.088 150.14 58.414 147.728 58.414C145.334 58.414 143.318 60.106 143.318 62.788C143.318 65.416 145.226 67.18 147.746 67.18C149.276 67.18 150.752 66.532 151.526 65.308L150.14 64.246C149.636 64.93 148.772 65.29 147.854 65.29C146.612 65.29 145.712 64.696 145.478 63.526H151.976C152.012 63.22 152.03 62.95 152.03 62.716ZM145.478 62.068C145.73 60.79 146.63 60.25 147.764 60.25C148.934 60.25 149.816 60.916 149.942 62.068H145.478ZM162.12 62.716C162.12 60.088 160.23 58.414 157.818 58.414C155.424 58.414 153.408 60.106 153.408 62.788C153.408 65.416 155.316 67.18 157.836 67.18C159.366 67.18 160.842 66.532 161.616 65.308L160.23 64.246C159.726 64.93 158.862 65.29 157.944 65.29C156.702 65.29 155.802 64.696 155.568 63.526H162.066C162.102 63.22 162.12 62.95 162.12 62.716ZM155.568 62.068C155.82 60.79 156.72 60.25 157.854 60.25C159.024 60.25 159.906 60.916 160.032 62.068H155.568ZM170.897 58.594H163.679V60.538H167.873L163.409 65.38V67H170.897V65.056H166.361L170.897 60.232V58.594ZM178.528 58.594L176.368 63.922L174.19 58.594H171.904L175.252 66.424L173.362 71.104H175.558L180.778 58.594H178.528ZM190.446 67.18C192.876 67.18 194.766 65.704 194.766 63.436C194.766 61.456 193.272 60.412 191.328 59.872L189.852 59.476C188.43 59.116 188.322 58.378 188.322 58.036C188.322 57.064 189.204 56.416 190.266 56.416C191.418 56.416 192.192 57.154 192.192 58.18H194.37C194.37 55.858 192.588 54.454 190.32 54.454C188.034 54.454 186.108 55.876 186.108 58.072C186.108 59.152 186.576 60.754 189.24 61.438L190.788 61.87C191.832 62.158 192.57 62.662 192.57 63.526C192.57 64.498 191.76 65.218 190.5 65.218C189.132 65.218 188.214 64.336 188.196 63.382H186.018C186.018 65.47 187.8 67.18 190.446 67.18ZM202.635 58.594V62.986C202.635 64.624 201.447 65.146 200.493 65.146C199.557 65.146 198.747 64.462 198.747 63.112V58.594H196.659V63.31C196.659 65.758 197.865 67.198 200.025 67.198C200.871 67.198 202.203 66.73 202.635 65.686V67H204.723V58.594H202.635ZM212.087 58.414C211.079 58.414 209.873 58.828 209.297 59.71V58.594H207.209V71.104H209.297V65.866C209.873 66.766 211.043 67.162 212.105 67.162C214.319 67.162 216.227 65.488 216.227 62.788C216.227 60.106 214.301 58.414 212.087 58.414ZM211.763 65.218C210.557 65.218 209.333 64.282 209.333 62.806C209.333 61.33 210.485 60.358 211.763 60.358C213.059 60.358 214.139 61.402 214.139 62.806C214.139 64.21 213.059 65.218 211.763 65.218ZM223.091 58.414C222.083 58.414 220.877 58.828 220.301 59.71V58.594H218.213V71.104H220.301V65.866C220.877 66.766 222.047 67.162 223.109 67.162C225.323 67.162 227.231 65.488 227.231 62.788C227.231 60.106 225.305 58.414 223.091 58.414ZM222.767 65.218C221.561 65.218 220.337 64.282 220.337 62.806C220.337 61.33 221.489 60.358 222.767 60.358C224.063 60.358 225.143 61.402 225.143 62.806C225.143 64.21 224.063 65.218 222.767 65.218ZM229.217 67H231.305V54.094H229.217V67ZM239.331 58.594L237.171 63.922L234.993 58.594H232.707L236.055 66.424L234.165 71.104H236.361L241.581 58.594H239.331ZM254.273 60.376C255.533 59.926 255.893 58.756 255.893 57.784C255.893 55.894 254.525 54.598 252.365 54.598H247.541V67H252.743C255.317 67 256.559 65.218 256.559 63.472C256.559 62.104 255.785 60.682 254.273 60.376ZM252.275 56.56C253.229 56.56 253.697 57.226 253.697 58.09C253.697 58.99 253.193 59.602 252.275 59.602H249.737V56.56H252.275ZM252.401 65.038H249.737V61.456H252.455C253.769 61.456 254.345 62.374 254.345 63.256C254.345 64.192 253.679 65.038 252.401 65.038ZM263.09 58.414C262.046 58.414 261.128 58.99 260.678 60.394V58.594H258.59V67H260.696V64.066C260.696 61.708 261.452 60.376 262.82 60.376C263.126 60.376 263.558 60.43 264.044 60.682L264.458 58.702C264.134 58.522 263.594 58.414 263.09 58.414ZM269.563 67.18C271.957 67.18 274.045 65.434 274.045 62.77C274.045 60.106 271.957 58.414 269.563 58.414C267.169 58.414 265.099 60.106 265.099 62.77C265.099 65.434 267.169 67.18 269.563 67.18ZM269.563 65.236C268.267 65.236 267.205 64.246 267.205 62.77C267.205 61.33 268.267 60.358 269.563 60.358C270.859 60.358 271.939 61.33 271.939 62.77C271.939 64.246 270.859 65.236 269.563 65.236ZM286.003 58.594L284.221 64.012L282.439 58.594H280.585L278.803 64.012L277.021 58.594H274.771L277.885 67H279.631L281.503 61.258L283.465 67H285.229L288.253 58.594H286.003ZM292.405 67.18C294.115 67.18 295.825 66.28 295.825 64.57C295.825 63.796 295.483 62.608 293.593 62.122L292.243 61.762C291.757 61.654 291.343 61.402 291.343 60.97C291.343 60.448 291.793 60.088 292.441 60.088C293.035 60.088 293.557 60.448 293.557 61.042H295.555C295.573 59.152 293.881 58.414 292.387 58.414C290.551 58.414 289.255 59.566 289.255 60.88C289.255 61.942 289.741 62.95 291.631 63.454L292.747 63.742C293.377 63.886 293.737 64.102 293.737 64.57C293.737 65.11 293.197 65.488 292.369 65.488C291.487 65.488 290.983 64.948 290.983 64.372H289.021C289.057 66.172 290.731 67.18 292.405 67.18ZM305.961 62.716C305.961 60.088 304.071 58.414 301.659 58.414C299.265 58.414 297.249 60.106 297.249 62.788C297.249 65.416 299.157 67.18 301.677 67.18C303.207 67.18 304.683 66.532 305.457 65.308L304.071 64.246C303.567 64.93 302.703 65.29 301.785 65.29C300.543 65.29 299.643 64.696 299.409 63.526H305.907C305.943 63.22 305.961 62.95 305.961 62.716ZM299.409 62.068C299.661 60.79 300.561 60.25 301.695 60.25C302.865 60.25 303.747 60.916 303.873 62.068H299.409ZM312.361 58.414C311.317 58.414 310.399 58.99 309.949 60.394V58.594H307.861V67H309.967V64.066C309.967 61.708 310.723 60.376 312.091 60.376C312.397 60.376 312.829 60.43 313.315 60.682L313.729 58.702C313.405 58.522 312.865 58.414 312.361 58.414ZM326.849 54.598H317.561V56.56H321.107V67H323.303V56.56H326.849V54.598ZM330.84 67.18C333.234 67.18 335.322 65.434 335.322 62.77C335.322 60.106 333.234 58.414 330.84 58.414C328.446 58.414 326.376 60.106 326.376 62.77C326.376 65.434 328.446 67.18 330.84 67.18ZM330.84 65.236C329.544 65.236 328.482 64.246 328.482 62.77C328.482 61.33 329.544 60.358 330.84 60.358C332.136 60.358 333.216 61.33 333.216 62.77C333.216 64.246 332.136 65.236 330.84 65.236ZM341.229 67.18C343.623 67.18 345.711 65.434 345.711 62.77C345.711 60.106 343.623 58.414 341.229 58.414C338.835 58.414 336.765 60.106 336.765 62.77C336.765 65.434 338.835 67.18 341.229 67.18ZM341.229 65.236C339.933 65.236 338.871 64.246 338.871 62.77C338.871 61.33 339.933 60.358 341.229 60.358C342.525 60.358 343.605 61.33 343.605 62.77C343.605 64.246 342.525 65.236 341.229 65.236ZM347.676 67H349.764V54.094H347.676V67Z" fill="black" fill-opacity="0.32"/>
<path d="M60 75C68.2843 75 75 68.2843 75 60C75 51.7157 68.2843 45 60 45C51.7157 45 45 51.7157 45 60C45 68.2843 51.7157 75 60 75Z" stroke="#8A7A98" stroke-width="3" stroke-linecap="round" stroke-linejoin="round"/>
<path d="M66.3596 53.64L63.1796 63.18L53.6396 66.36L56.8196 56.82L66.3596 53.64Z" stroke="#8A7A98" stroke-width="3" stroke-linecap="round" stroke-linejoin="round"/>
<defs>
<filter id="filter0_d" x="0" y="0" width="420" height="120" filterUnits="userSpaceOnUse" color-interpolation-filters="sRGB">
<feFlood flood-opacity="0" result="BackgroundImageFix"/>
<feColorMatrix in="SourceAlpha" type="matrix" values="0 0 0 0 0 0 0 0 0 0 0 0 0 0 0 0 0 0 127 0"/>
<feOffset/>
<feGaussianBlur stdDeviation="5"/>
<feColorMatrix type="matrix" values="0 0 0 0 0.754167 0 0 0 0 0.754167 0 0 0 0 0.754167 0 0 0 0.25 0"/>
<feBlend mode="normal" in2="BackgroundImageFix" result="effect1_dropShadow"/>
<feBlend mode="normal" in="SourceGraphic" in2="effect1_dropShadow" result="shape"/>
</filter>
</defs>
</svg>
